<?xml version="1.0" encoding="UTF-8" standalone="no"?>
<!-- Generado por Microsoft Visio, SVG Export EstructuraRepositorio.svg Página-1 -->

<svg
   xmlns:dc="http://purl.org/dc/elements/1.1/"
   xmlns:cc="http://creativecommons.org/ns#"
   xmlns:rdf="http://www.w3.org/1999/02/22-rdf-syntax-ns#"
   xmlns:svg="http://www.w3.org/2000/svg"
   xmlns="http://www.w3.org/2000/svg"
   xmlns:sodipodi="http://sodipodi.sourceforge.net/DTD/sodipodi-0.dtd"
   xmlns:inkscape="http://www.inkscape.org/namespaces/inkscape"
   width="6.60491in"
   height="6.40805in"
   viewBox="0 0 475.553 461.38"
   xml:space="preserve"
   color-interpolation-filters="sRGB"
   class="st8"
   version="1.1"
   id="svg719"
   sodipodi:docname="estructuraRepositorios.svg"
   inkscape:version="0.92.4 (5da689c313, 2019-01-14)"><metadata
   id="metadata725"><rdf:RDF><cc:Work
       rdf:about=""><dc:format>image/svg+xml</dc:format><dc:type
         rdf:resource="http://purl.org/dc/dcmitype/StillImage" /><dc:title></dc:title></cc:Work></rdf:RDF></metadata><defs
   id="defs723" /><sodipodi:namedview
   pagecolor="#ffffff"
   bordercolor="#666666"
   borderopacity="1"
   objecttolerance="10"
   gridtolerance="10"
   guidetolerance="10"
   inkscape:pageopacity="0"
   inkscape:pageshadow="2"
   inkscape:window-width="1920"
   inkscape:window-height="1017"
   id="namedview721"
   showgrid="false"
   inkscape:zoom="0.38363204"
   inkscape:cx="317.03568"
   inkscape:cy="307.5864"
   inkscape:window-x="-8"
   inkscape:window-y="-8"
   inkscape:window-maximized="1"
   inkscape:current-layer="g717" />
	<style
   type="text/css"
   id="style2">
	<![CDATA[
		.st1 {fill:none;stroke:#000000;stroke-linecap:round;stroke-linejoin:round;stroke-width:0.75}
		.st2 {fill:#ffffff;stroke:#000000;stroke-linecap:round;stroke-linejoin:round;stroke-width:0.75}
		.st3 {fill:#000000;font-family:Calibri;font-size:1.00001em}
		.st4 {stroke:#000000;stroke-linecap:round;stroke-linejoin:round;stroke-width:0.75}
		.st5 {fill:none;stroke:none;stroke-linecap:round;stroke-linejoin:round;stroke-width:0.75}
		.st6 {stroke:#000000;stroke-dasharray:0.75,1.5;stroke-linecap:round;stroke-linejoin:round;stroke-width:0.75}
		.st7 {fill:#ffffff;stroke:#000000;stroke-dasharray:0.75,1.5;stroke-linecap:round;stroke-linejoin:round;stroke-width:0.75}
		.st8 {fill:none;fill-rule:evenodd;font-size:12px;overflow:visible;stroke-linecap:square;stroke-miterlimit:3}
	]]>
	</style>

	<g
   id="g717">
		<title
   id="title4">Página-1</title>
		<g
   id="shape113-1"
   transform="translate(0.375,-0.375)">
			<title
   id="title6">Hoja.113</title>
			<rect
   x="0"
   y="0.749988"
   width="474.803"
   height="460.63"
   class="st1"
   id="rect8" />
		</g>
		<g
   id="shape1-3"
   transform="translate(7.46161,-432.658)">
			<title
   id="title11">Hoja.1</title>
			<desc
   id="desc13">Repositorio</desc>
			<rect
   x="0"
   y="440.12"
   width="92.126"
   height="21.2598"
   class="st2"
   id="rect15" />
			<text
   x="17.97"
   y="454.35"
   class="st3"
   id="text17">Repositorio</text>
		</g>
		<g
   id="shape2-6"
   transform="translate(28.7215,-397.225)">
			<title
   id="title20">Hoja.2</title>
			<desc
   id="desc22">Docs</desc>
			<rect
   x="0"
   y="440.12"
   width="92.126"
   height="21.2598"
   class="st2"
   id="rect24" />
			<text
   x="34.32"
   y="454.35"
   class="st3"
   id="text26">Docs</text>
		</g>
		<g
   id="shape7-9"
   transform="translate(49.9813,-368.879)">
			<title
   id="title29">Hoja.7</title>
			<desc
   id="desc31">Models</desc>
			<rect
   x="0"
   y="440.12"
   width="92.126"
   height="21.2598"
   class="st2"
   id="rect33" />
			<text
   x="27.91"
   y="454.35"
   class="st3"
   id="text35">Models</text>
		</g>
		<g
   id="group11-12"
   transform="translate(71.2411,-347.619)">
			<title
   id="title38">Hoja.11</title>
			<g
   id="shape8-13"
   transform="translate(461.38,447.207) rotate(90)">
				<title
   id="title40">Hoja.8</title>
				<path
   d="M0 461.38 L14.17 461.38"
   class="st4"
   id="path42" />
			</g>
			<g
   id="shape9-16">
				<title
   id="title45">Hoja.9</title>
				<path
   d="M0 461.38 L14.17 461.38 L14.17 451.93 L9.13 451.93 L9.13 447.21 L0 447.21"
   class="st4"
   id="path47" />
			</g>
			<g
   id="shape10-19"
   transform="translate(-301.383,788.525) rotate(-136.848)">
				<title
   id="title50">Hoja.10</title>
				<path
   d="M0 461.38 L6.91 461.38"
   class="st4"
   id="path52" />
			</g>
		</g>
		<g
   id="shape12-22"
   transform="translate(87.5404,-347.619)">
			<title
   id="title56">Hoja.12</title>
			<desc
   id="desc58">EntitiesModel.png</desc>
			<rect
   x="0"
   y="447.207"
   width="111.26"
   height="14.1732"
   class="st5"
   id="rect60" />
			<text
   x="4"
   y="457.89"
   class="st3"
   id="text62">EntitiesModel.png</text>
		</g>
		<g
   id="group13-25"
   transform="translate(71.2411,-326.359)">
			<title
   id="title65">Hoja.13</title>
			<g
   id="shape14-26"
   transform="translate(461.38,447.207) rotate(90)">
				<title
   id="title67">Hoja.14</title>
				<path
   d="M0 461.38 L14.17 461.38"
   class="st4"
   id="path69" />
			</g>
			<g
   id="shape15-29">
				<title
   id="title72">Hoja.15</title>
				<path
   d="M0 461.38 L14.17 461.38 L14.17 451.93 L9.13 451.93 L9.13 447.21 L0 447.21"
   class="st4"
   id="path74" />
			</g>
			<g
   id="shape16-32"
   transform="translate(-301.383,788.525) rotate(-136.848)">
				<title
   id="title77">Hoja.16</title>
				<path
   d="M0 461.38 L6.91 461.38"
   class="st4"
   id="path79" />
			</g>
		</g>
		<g
   id="shape18-35"
   transform="translate(49.9813,-298.013)">
			<title
   id="title83">Hoja.18</title>
			<desc
   id="desc85">Tutorials</desc>
			<rect
   x="0"
   y="440.12"
   width="92.126"
   height="21.2598"
   class="st2"
   id="rect87" />
			<text
   x="24.75"
   y="454.35"
   class="st3"
   id="text89">Tutorials</text>
		</g>
		<g
   id="group19-38"
   transform="translate(71.2411,-276.753)">
			<title
   id="title92">Hoja.19</title>
			<g
   id="shape20-39"
   transform="translate(461.38,447.207) rotate(90)">
				<title
   id="title94">Hoja.20</title>
				<path
   d="M0 461.38 L14.17 461.38"
   class="st6"
   id="path96" />
			</g>
			<g
   id="shape21-42">
				<title
   id="title99">Hoja.21</title>
				<path
   d="M0 461.38 L14.17 461.38 L14.17 451.93 L9.13 451.93 L9.13 447.21 L0 447.21"
   class="st6"
   id="path101" />
			</g>
			<g
   id="shape22-45"
   transform="translate(-301.383,788.525) rotate(-136.848)">
				<title
   id="title104">Hoja.22</title>
				<path
   d="M0 461.38 L6.91 461.38"
   class="st6"
   id="path106" />
			</g>
		</g>
		<g
   id="shape23-48"
   transform="translate(87.5404,-276.753)">
			<title
   id="title110">Hoja.23</title>
			<desc
   id="desc112">userManual.pdf</desc>
			<rect
   x="0"
   y="447.207"
   width="106.299"
   height="14.1732"
   class="st5"
   id="rect114" />
			<text
   x="4"
   y="457.89"
   class="st3"
   id="text116">userManual.pdf</text>
		</g>
		<g
   id="shape24-51"
   transform="translate(71.2411,-227.147)">
			<title
   id="title119">Hoja.24</title>
			<desc
   id="desc121">US001-&lt;Name&gt;</desc>
			<path
   d="M0 461.38 L92.13 461.38 L92.13 440.12 L0 440.12 L0 461.38 Z"
   class="st7"
   id="path123" />
			<text
   x="7.99"
   y="454.35"
   class="st3"
   id="text125">US001-&lt;Name&gt;</text>
		</g>
		<g
   id="shape25-54"
   transform="translate(71.2411,-198.8)">
			<title
   id="title128">Hoja.25</title>
			<desc
   id="desc130">US002-&lt;Name&gt;</desc>
			<path
   d="M0 461.38 L92.13 461.38 L92.13 440.12 L0 440.12 L0 461.38 Z"
   class="st7"
   id="path132" />
			<text
   x="7.99"
   y="454.35"
   class="st3"
   id="text134">US002-&lt;Name&gt;</text>
		</g>
		<g
   id="shape26-57"
   transform="translate(71.2411,-170.454)">
			<title
   id="title137">Hoja.26</title>
			<desc
   id="desc139">….</desc>
			<path
   d="M0 461.38 L92.13 461.38 L92.13 440.12 L0 440.12 L0 461.38 Z"
   class="st7"
   id="path141" />
			<text
   x="40.41"
   y="454.35"
   class="st3"
   id="text143">….</text>
		</g>
		<g
   id="shape27-60"
   transform="translate(49.9813,-142.107)">
			<title
   id="title146">Hoja.27</title>
			<desc
   id="desc148">Test Plans</desc>
			<rect
   x="0"
   y="440.12"
   width="92.126"
   height="21.2598"
   class="st2"
   id="rect150" />
			<text
   x="21.59"
   y="454.35"
   class="st3"
   id="text152">Test Plans</text>
		</g>
		<g
   id="group43-63"
   transform="translate(71.2411,-120.847)">
			<title
   id="title155">Hoja.43</title>
			<g
   id="shape44-64"
   transform="translate(461.38,447.207) rotate(90)">
				<title
   id="title157">Hoja.44</title>
				<path
   d="M0 461.38 L14.17 461.38"
   class="st4"
   id="path159" />
			</g>
			<g
   id="shape45-67">
				<title
   id="title162">Hoja.45</title>
				<path
   d="M0 461.38 L14.17 461.38 L14.17 451.93 L9.13 451.93 L9.13 447.21 L0 447.21"
   class="st4"
   id="path164" />
			</g>
			<g
   id="shape46-70"
   transform="translate(-301.383,788.525) rotate(-136.848)">
				<title
   id="title167">Hoja.46</title>
				<path
   d="M0 461.38 L6.91 461.38"
   class="st4"
   id="path169" />
			</g>
		</g>
		<g
   id="shape47-73"
   transform="translate(87.5404,-120.847)">
			<title
   id="title173">Hoja.47</title>
			<desc
   id="desc175">US001-&lt;Name&gt;-TestPlan.pdf</desc>
			<rect
   x="0"
   y="447.207"
   width="149.528"
   height="14.1732"
   class="st5"
   id="rect177" />
			<text
   x="4"
   y="457.89"
   class="st3"
   id="text179">US001-&lt;Name&gt;-TestPlan.pdf</text>
		</g>
		<g
   id="group28-76"
   transform="translate(71.2411,-99.5876)">
			<title
   id="title182">Hoja.28</title>
			<g
   id="shape29-77"
   transform="translate(461.38,447.207) rotate(90)">
				<title
   id="title184">Hoja.29</title>
				<path
   d="M0 461.38 L14.17 461.38"
   class="st4"
   id="path186" />
			</g>
			<g
   id="shape30-80">
				<title
   id="title189">Hoja.30</title>
				<path
   d="M0 461.38 L14.17 461.38 L14.17 451.93 L9.13 451.93 L9.13 447.21 L0 447.21"
   class="st4"
   id="path191" />
			</g>
			<g
   id="shape48-83"
   transform="translate(-301.383,788.525) rotate(-136.848)">
				<title
   id="title194">Hoja.48</title>
				<path
   d="M0 461.38 L6.91 461.38"
   class="st4"
   id="path196" />
			</g>
		</g>
		<g
   id="shape56-86"
   transform="translate(14.5482,-408.564)">
			<title
   id="title200">Hoja.56</title>
			<path
   d="M14.17 461.38 L0 461.38 L0 437.29"
   class="st4"
   id="path202" />
		</g>
		<g
   id="shape57-89"
   transform="translate(35.8081,-81.1624)">
			<title
   id="title205">Hoja.57</title>
			<path
   d="M0 145.32 L0 461.38 L14.17 461.38"
   class="st4"
   id="path207" />
		</g>
		<g
   id="shape59-92"
   transform="translate(518.448,92.5009) rotate(90)">
			<title
   id="title210">Hoja.59</title>
			<path
   d="M0 461.38 L35.43 461.38"
   class="st4"
   id="path212" />
		</g>
		<g
   id="shape60-95"
   transform="translate(518.448,163.367) rotate(90)">
			<title
   id="title215">Hoja.60</title>
			<path
   d="M0 461.38 L116.22 461.38"
   class="st6"
   id="path217" />
		</g>
		<g
   id="shape61-98"
   transform="translate(57.0679,-283.84)">
			<title
   id="title220">Hoja.61</title>
			<path
   d="M0 461.38 L14.17 461.38"
   class="st6"
   id="path222" />
		</g>
		<g
   id="shape62-101"
   transform="translate(57.0679,-181.792)">
			<title
   id="title225">Hoja.62</title>
			<path
   d="M0 461.38 L14.17 461.38"
   class="st6"
   id="path227" />
		</g>
		<g
   id="shape63-104"
   transform="translate(57.0679,-333.446)">
			<title
   id="title230">Hoja.63</title>
			<path
   d="M0 461.38 L14.17 461.38"
   class="st4"
   id="path232" />
		</g>
		<g
   id="shape64-107"
   transform="translate(57.0679,-354.706)">
			<title
   id="title235">Hoja.64</title>
			<path
   d="M0 461.38 L14.17 461.38"
   class="st4"
   id="path237" />
		</g>
		<g
   id="shape66-110"
   transform="translate(57.0679,-106.674)">
			<title
   id="title240">Hoja.66</title>
			<path
   d="M0 425.95 L0 461.38 L14.17 461.38"
   class="st4"
   id="path242" />
		</g>
		<g
   id="shape68-113"
   transform="translate(57.0679,-127.934)">
			<title
   id="title245">Hoja.68</title>
			<path
   d="M0 461.38 L14.17 461.38"
   class="st4"
   id="path247" />
		</g>
		<g
   id="shape71-116"
   transform="translate(14.5482,-425.572)">
			<title
   id="title250">Hoja.71</title>
			<path
   d="M0 461.38 L191.34 461.38"
   class="st4"
   id="path252" />
		</g>
		<g
   id="shape72-119"
   transform="translate(49.9813,542.542) rotate(180)">
			<title
   id="title255">Hoja.72</title>
			<path
   d="M0 461.38 L14.17 461.38"
   class="st4"
   id="path257" />
		</g>
		<g
   id="shape75-122"
   transform="translate(71.2411,685.692) rotate(180)">
			<title
   id="title260">Hoja.75</title>
			<path
   d="M0 461.38 L14.17 461.38"
   class="st6"
   id="path262" />
		</g>
		<g
   id="shape76-125"
   transform="translate(71.2411,714.038) rotate(180)">
			<title
   id="title265">Hoja.76</title>
			<path
   d="M0 461.38 L14.17 461.38"
   class="st6"
   id="path267" />
		</g>
		<g
   id="shape98-128"
   transform="translate(205.887,-418.485)">
			<title
   id="title270">Hoja.98</title>
			<path
   d="M0 454.29 L35.43 454.29 L35.43 461.38"
   class="st4"
   id="path272" />
		</g>
		<g
   id="shape115-131"
   transform="translate(49.2726,-71.2411)">
			<title
   id="title275">Hoja.115</title>
			<desc
   id="desc277">Quality Report</desc>
			<rect
   x="0"
   y="440.12"
   width="92.126"
   height="21.2598"
   class="st2"
   id="rect279" />
			<text
   x="10.5"
   y="454.35"
   class="st3"
   id="text281">Quality Report</text>
		</g>
		<g
   id="group116-134"
   transform="translate(70.5325,-49.9813)">
			<title
   id="title284">Hoja.116</title>
			<g
   id="shape117-135"
   transform="translate(461.38,447.207) rotate(90)">
				<title
   id="title286">Hoja.117</title>
				<path
   d="M0 461.38 L14.17 461.38"
   class="st4"
   id="path288" />
			</g>
			<g
   id="shape118-138">
				<title
   id="title291">Hoja.118</title>
				<path
   d="M0 461.38 L14.17 461.38 L14.17 451.93 L9.13 451.93 L9.13 447.21 L0 447.21"
   class="st4"
   id="path293" />
			</g>
			<g
   id="shape119-141"
   transform="translate(-301.383,788.525) rotate(-136.848)">
				<title
   id="title296">Hoja.119</title>
				<path
   d="M0 461.38 L6.91 461.38"
   class="st4"
   id="path298" />
			</g>
		</g>
		<g
   id="shape120-144"
   transform="translate(86.8317,-49.9813)">
			<title
   id="title302">Hoja.120</title>
			<desc
   id="desc304">SP01-QAReport.pdf</desc>
			<rect
   x="0"
   y="447.207"
   width="165.118"
   height="14.1732"
   class="st5"
   id="rect306" />
			<text
   x="4"
   y="457.89"
   class="st3"
   id="text308">SP01-QAReport.pdf</text>
		</g>
		<g
   id="group121-147"
   transform="translate(70.5325,-28.7215)">
			<title
   id="title311">Hoja.121</title>
			<g
   id="shape122-148"
   transform="translate(461.38,447.207) rotate(90)">
				<title
   id="title313">Hoja.122</title>
				<path
   d="M0 461.38 L14.17 461.38"
   class="st4"
   id="path315" />
			</g>
			<g
   id="shape123-151">
				<title
   id="title318">Hoja.123</title>
				<path
   d="M0 461.38 L14.17 461.38 L14.17 451.93 L9.13 451.93 L9.13 447.21 L0 447.21"
   class="st4"
   id="path320" />
			</g>
			<g
   id="shape124-154"
   transform="translate(-301.383,788.525) rotate(-136.848)">
				<title
   id="title323">Hoja.124</title>
				<path
   d="M0 461.38 L6.91 461.38"
   class="st4"
   id="path325" />
			</g>
		</g>
		<g
   id="shape125-157"
   transform="translate(86.8317,-28.7215)">
			<title
   id="title329">Hoja.125</title>
			<desc
   id="desc331">SP02-QAReport.pdf</desc>
			<rect
   x="0"
   y="447.207"
   width="145.276"
   height="14.1732"
   class="st5"
   id="rect333" />
			<text
   x="4"
   y="457.89"
   class="st3"
   id="text335">SP02-QAReport.pdf</text>
		</g>
		<g
   id="group126-160"
   transform="translate(70.5325,-7.46161)">
			<title
   id="title338">Hoja.126</title>
			<g
   id="shape127-161"
   transform="translate(461.38,447.207) rotate(90)">
				<title
   id="title340">Hoja.127</title>
				<path
   d="M0 461.38 L14.17 461.38"
   class="st4"
   id="path342" />
			</g>
			<g
   id="shape128-164">
				<title
   id="title345">Hoja.128</title>
				<path
   d="M0 461.38 L14.17 461.38 L14.17 451.93 L9.13 451.93 L9.13 447.21 L0 447.21"
   class="st4"
   id="path347" />
			</g>
			<g
   id="shape129-167"
   transform="translate(-301.383,788.525) rotate(-136.848)">
				<title
   id="title350">Hoja.129</title>
				<path
   d="M0 461.38 L6.91 461.38"
   class="st4"
   id="path352" />
			</g>
		</g>
		<g
   id="shape130-170"
   transform="translate(86.8317,-7.46161)">
			<title
   id="title356">Hoja.130</title>
			<desc
   id="desc358">...</desc>
			<rect
   x="0"
   y="447.207"
   width="139.606"
   height="14.1732"
   class="st5"
   id="rect360" />
			<text
   x="4"
   y="457.89"
   class="st3"
   id="text362">...</text>
		</g>
		<g
   id="shape131-173"
   transform="translate(56.3593,-14.5482)">
			<title
   id="title365">Hoja.131</title>
			<path
   d="M0 404.69 L0 461.38 L14.17 461.38"
   class="st4"
   id="path367" />
		</g>
		<g
   id="shape132-176"
   transform="translate(56.3593,-35.8081)">
			<title
   id="title370">Hoja.132</title>
			<path
   d="M0 461.38 L14.17 461.38"
   class="st4"
   id="path372" />
		</g>
		<g
   id="shape133-179"
   transform="translate(56.3593,-57.0679)">
			<title
   id="title375">Hoja.133</title>
			<path
   d="M0 461.38 L14.17 461.38"
   class="st4"
   id="path377" />
		</g>
		<g
   id="shape135-182"
   transform="translate(49.9813,613.408) rotate(180)">
			<title
   id="title380">Hoja.135</title>
			<path
   d="M0 461.38 L14.17 461.38"
   class="st4"
   id="path382" />
		</g>
		<g
   id="shape136-185"
   transform="translate(35.8081,-153.446)">
			<title
   id="title385">Hoja.136</title>
			<path
   d="M0 461.38 L14.17 461.38"
   class="st4"
   id="path387" />
		</g>
		<g
   id="shape147-188"
   transform="translate(87.5404,-326.359)">
			<title
   id="title390">Hoja.147</title>
			<desc
   id="desc392">AppArchitecture.png</desc>
			<rect
   x="0"
   y="447.207"
   width="111.26"
   height="14.1732"
   class="st5"
   id="rect394" />
			<text
   x="4"
   y="457.89"
   class="st3"
   id="text396">AppArchitecture.png</text>
		</g>
		<g
   id="shape152-191"
   transform="translate(87.5404,-99.5876)">
			<title
   id="title399">Hoja.152</title>
			<desc
   id="desc401">US002-&lt;Name&gt;-TestPlan.pdf</desc>
			<rect
   x="0"
   y="447.207"
   width="150.945"
   height="14.1732"
   class="st5"
   id="rect403" />
			<text
   x="4"
   y="457.89"
   class="st3"
   id="text405">US002-&lt;Name&gt;-TestPlan.pdf</text>
		</g>
		<g
   id="group188-194"
   transform="translate(241.32,-332.029)">
			<title
   id="title408">Hoja.188</title>
			<g
   id="group165-195"
   transform="translate(-7.99361E-14,-21.2598)">
				<title
   id="title410">Hoja.165</title>
				<g
   id="shape166-196"
   transform="translate(14.1732,-42.5197)">
					<title
   id="title412">Hoja.166</title>
					<desc
   id="desc414">Releases</desc>
					<rect
   x="0"
   y="440.12"
   width="92.126"
   height="21.2598"
   class="st2"
   id="rect416" />
					<text
   x="24.9"
   y="454.35"
   class="st3"
   id="text418">Releases</text>
				</g>
				<g
   id="group167-199"
   transform="translate(35.4331,-21.2598)">
					<title
   id="title421">Hoja.167</title>
					<g
   id="shape168-200"
   transform="translate(461.38,447.207) rotate(90)">
						<title
   id="title423">Hoja.168</title>
						<path
   d="M0 461.38 L14.17 461.38"
   class="st4"
   id="path425" />
					</g>
					<g
   id="shape169-203">
						<title
   id="title428">Hoja.169</title>
						<path
   d="M0 461.38 L14.17 461.38 L14.17 451.93 L9.13 451.93 L9.13 447.21 L0 447.21"
   class="st4"
   id="path430" />
					</g>
					<g
   id="shape170-206"
   transform="translate(-301.383,788.525) rotate(-136.848)">
						<title
   id="title433">Hoja.170</title>
						<path
   d="M0 461.38 L6.91 461.38"
   class="st4"
   id="path435" />
					</g>
				</g>
				<g
   id="shape171-209"
   transform="translate(52.7953,-21.2598)">
					<title
   id="title439">Hoja.171</title>
					<desc
   id="desc441">BusFinder-00.00.01-20211005.apk</desc>
					<rect
   x="0"
   y="447.207"
   width="181.063"
   height="14.1732"
   class="st5"
   id="rect443" />
					<text
   x="4"
   y="457.89"
   class="st3"
   id="text445">BusFinder-00.00.01-20211005.apk</text>
				</g>
				<g
   id="group172-212"
   transform="translate(35.4331,5.68434E-14)">
					<title
   id="title448">Hoja.172</title>
					<g
   id="shape173-213"
   transform="translate(461.38,447.207) rotate(90)">
						<title
   id="title450">Hoja.173</title>
						<path
   d="M0 461.38 L14.17 461.38"
   class="st4"
   id="path452" />
					</g>
					<g
   id="shape174-216">
						<title
   id="title455">Hoja.174</title>
						<path
   d="M0 461.38 L14.17 461.38 L14.17 451.93 L9.13 451.93 L9.13 447.21 L0 447.21"
   class="st4"
   id="path457" />
					</g>
					<g
   id="shape175-219"
   transform="translate(-301.383,788.525) rotate(-136.848)">
						<title
   id="title460">Hoja.175</title>
						<path
   d="M0 461.38 L6.91 461.38"
   class="st4"
   id="path462" />
					</g>
				</g>
				<g
   id="shape176-222"
   transform="translate(52.7953,5.68434E-14)">
					<title
   id="title466">Hoja.176</title>
					<desc
   id="desc468">BusFinder-00.00.02-20211020.apk</desc>
					<rect
   x="0"
   y="447.207"
   width="176.811"
   height="14.1732"
   class="st5"
   id="rect470" />
					<text
   x="4"
   y="457.89"
   class="st3"
   id="text472">BusFinder-00.00.02-20211020.apk</text>
				</g>
				<g
   id="shape177-225"
   transform="translate(-7.99361E-15,-52.4409)">
					<title
   id="title475">Hoja.177</title>
					<path
   d="M0 461.38 L14.17 461.38"
   class="st4"
   id="path477" />
				</g>
				<g
   id="shape178-228"
   transform="translate(21.2598,-7.08661)">
					<title
   id="title480">Hoja.178</title>
					<path
   d="M0 425.95 L0 461.38 L14.17 461.38"
   class="st4"
   id="path482" />
				</g>
				<g
   id="shape179-231"
   transform="translate(21.2598,-28.3465)">
					<title
   id="title485">Hoja.179</title>
					<path
   d="M0 461.38 L14.17 461.38"
   class="st4"
   id="path487" />
				</g>
			</g>
			<g
   id="group180-234"
   transform="translate(35.4331,1.13687E-13)">
				<title
   id="title491">Hoja.180</title>
				<g
   id="shape181-235"
   transform="translate(461.38,447.207) rotate(90)">
					<title
   id="title493">Hoja.181</title>
					<path
   d="M0 461.38 L14.17 461.38"
   class="st4"
   id="path495" />
				</g>
				<g
   id="shape182-238">
					<title
   id="title498">Hoja.182</title>
					<path
   d="M0 461.38 L14.17 461.38 L14.17 451.93 L9.13 451.93 L9.13 447.21 L0 447.21"
   class="st4"
   id="path500" />
				</g>
				<g
   id="shape183-241"
   transform="translate(-301.383,788.525) rotate(-136.848)">
					<title
   id="title503">Hoja.183</title>
					<path
   d="M0 461.38 L6.91 461.38"
   class="st4"
   id="path505" />
				</g>
			</g>
			<g
   id="shape184-244"
   transform="translate(51.7323,-1.13687E-13)">
				<title
   id="title509">Hoja.184</title>
				<desc
   id="desc511">...</desc>
				<rect
   x="0"
   y="447.207"
   width="139.606"
   height="14.1732"
   class="st5"
   id="rect513" />
				<text
   x="4"
   y="457.89"
   class="st3"
   id="text515">...</text>
			</g>
			<g
   id="shape185-247"
   transform="translate(482.64,433.033) rotate(90)">
				<title
   id="title518">Hoja.185</title>
				<path
   d="M0 461.38 L21.26 461.38"
   class="st4"
   id="path520" />
			</g>
			<g
   id="shape186-250"
   transform="translate(21.2598,-7.08662)">
				<title
   id="title523">Hoja.186</title>
				<path
   d="M0 461.38 L14.17 461.38"
   class="st4"
   id="path525" />
			</g>
		</g>
		<g
   id="shape189-253"
   transform="translate(-220.06,55.6506) rotate(-90)">
			<title
   id="title529">Hoja.189</title>
			<path
   d="M0 461.38 L12.76 461.38"
   class="st4"
   id="path531" />
		</g>
		<g
   id="shape190-256"
   transform="translate(241.32,-315.021)">
			<title
   id="title534">Hoja.190</title>
			<path
   d="M0 370.67 L0 461.38 L14.17 461.38"
   class="st4"
   id="path536" />
		</g>
		<g
   id="shape191-259"
   transform="translate(255.493,-305.099)">
			<title
   id="title539">Hoja.191</title>
			<desc
   id="desc541">AndroidProject</desc>
			<rect
   x="0"
   y="440.12"
   width="92.126"
   height="21.2598"
   class="st2"
   id="rect543" />
			<text
   x="9.18"
   y="454.35"
   class="st3"
   id="text545">AndroidProject</text>
		</g>
		<g
   id="shape192-262"
   transform="translate(263.997,-279.588)">
			<title
   id="title548">Hoja.192</title>
			<desc
   id="desc550">App/src</desc>
			<rect
   x="0"
   y="440.12"
   width="92.126"
   height="21.2598"
   class="st2"
   id="rect552" />
			<text
   x="26.99"
   y="454.35"
   class="st3"
   id="text554">App/src</text>
		</g>
		<g
   id="shape193-265"
   transform="translate(258.328,-289.509)">
			<title
   id="title557">Hoja.193</title>
			<path
   d="M0 445.79 L0 461.38 L5.67 461.38"
   class="st4"
   id="path559" />
		</g>
		<g
   id="shape194-268"
   transform="translate(272.501,-254.076)">
			<title
   id="title562">Hoja.194</title>
			<desc
   id="desc564">main</desc>
			<rect
   x="0"
   y="440.12"
   width="113.386"
   height="21.2598"
   class="st2"
   id="rect566" />
			<text
   x="44.5"
   y="454.35"
   class="st3"
   id="text568">main</text>
		</g>
		<g
   id="shape195-271"
   transform="translate(272.501,-152.737)">
			<title
   id="title571">Hoja.195</title>
			<desc
   id="desc573">AndroidTest</desc>
			<rect
   x="0"
   y="440.12"
   width="92.126"
   height="21.2598"
   class="st2"
   id="rect575" />
			<text
   x="16.24"
   y="454.35"
   class="st3"
   id="text577">AndroidTest</text>
		</g>
		<g
   id="shape196-274"
   transform="translate(272.501,-177.54)">
			<title
   id="title580">Hoja.196</title>
			<desc
   id="desc582">test</desc>
			<rect
   x="0"
   y="440.12"
   width="92.126"
   height="21.2598"
   class="st2"
   id="rect584" />
			<text
   x="36.71"
   y="454.35"
   class="st3"
   id="text586">test</text>
		</g>
		<g
   id="group199-277"
   transform="translate(281.005,-235.651)">
			<title
   id="title589">Hoja.199</title>
			<g
   id="shape197-278">
				<title
   id="title591">Hoja.197</title>
				<rect
   x="0"
   y="450.041"
   width="17.0079"
   height="11.3386"
   class="st2"
   id="rect593" />
			</g>
			<g
   id="shape198-280"
   transform="translate(3.2474E-14,-11.3386)">
				<title
   id="title596">Hoja.198</title>
				<rect
   x="0"
   y="458.545"
   width="8.50394"
   height="2.83465"
   class="st2"
   id="rect598" />
			</g>
		</g>
		<g
   id="group200-282"
   transform="translate(281.005,-218.643)">
			<title
   id="title602">Hoja.200</title>
			<g
   id="shape201-283">
				<title
   id="title604">Hoja.201</title>
				<rect
   x="0"
   y="450.041"
   width="17.0079"
   height="11.3386"
   class="st2"
   id="rect606" />
			</g>
			<g
   id="shape202-285"
   transform="translate(3.2474E-14,-11.3386)">
				<title
   id="title609">Hoja.202</title>
				<rect
   x="0"
   y="458.545"
   width="8.50394"
   height="2.83465"
   class="st2"
   id="rect611" />
			</g>
		</g>
		<g
   id="shape203-287"
   transform="translate(300.847,-235.651)">
			<title
   id="title615">Hoja.203</title>
			<desc
   id="desc617">Model</desc>
			<rect
   x="0"
   y="447.207"
   width="62.3622"
   height="14.1732"
   class="st5"
   id="rect619" />
			<text
   x="4"
   y="457.89"
   class="st3"
   id="text621">Model</text>
		</g>
		<g
   id="shape204-290"
   transform="translate(300.847,-218.643)">
			<title
   id="title624">Hoja.204</title>
			<desc
   id="desc626">View</desc>
			<rect
   x="0"
   y="447.207"
   width="62.3622"
   height="14.1732"
   class="st5"
   id="rect628" />
			<text
   x="4"
   y="457.89"
   class="st3"
   id="text630">View</text>
		</g>
		<g
   id="group205-293"
   transform="translate(281.005,-201.635)">
			<title
   id="title633">Hoja.205</title>
			<g
   id="shape206-294">
				<title
   id="title635">Hoja.206</title>
				<rect
   x="0"
   y="450.041"
   width="17.0079"
   height="11.3386"
   class="st2"
   id="rect637" />
			</g>
			<g
   id="shape207-296"
   transform="translate(3.2474E-14,-11.3386)">
				<title
   id="title640">Hoja.207</title>
				<rect
   x="0"
   y="458.545"
   width="8.50394"
   height="2.83465"
   class="st2"
   id="rect642" />
			</g>
		</g>
		<g
   id="shape208-298"
   transform="translate(300.847,-201.635)">
			<title
   id="title646">Hoja.208</title>
			<desc
   id="desc648">Presenter</desc>
			<rect
   x="0"
   y="447.207"
   width="62.3622"
   height="14.1732"
   class="st5"
   id="rect650" />
			<text
   x="4"
   y="457.89"
   class="st3"
   id="text652">Presenter</text>
		</g>
		<g
   id="shape209-301"
   transform="translate(266.832,-265.414)">
			<title
   id="title655">Hoja.209</title>
			<path
   d="M0 447.21 L0 461.38 L5.67 461.38"
   class="st4"
   id="path657" />
		</g>
		<g
   id="shape210-304"
   transform="translate(266.832,-187.462)">
			<title
   id="title660">Hoja.210</title>
			<path
   d="M0 383.43 L0 461.38 L5.67 461.38"
   class="st4"
   id="path662" />
		</g>
		<g
   id="shape211-307"
   transform="translate(266.832,-163.367)">
			<title
   id="title665">Hoja.211</title>
			<path
   d="M0 437.29 L0 461.38 L5.67 461.38"
   class="st4"
   id="path667" />
		</g>
		<g
   id="shape212-310"
   transform="translate(275.336,-207.304)">
			<title
   id="title670">Hoja.212</title>
			<path
   d="M5.67 461.38 L0 461.38 L0 414.61"
   class="st4"
   id="path672" />
		</g>
		<g
   id="shape213-313"
   transform="translate(275.336,-241.32)">
			<title
   id="title675">Hoja.213</title>
			<path
   d="M0 461.38 L5.67 461.38"
   class="st4"
   id="path677" />
		</g>
		<g
   id="shape214-316"
   transform="translate(275.336,-224.312)">
			<title
   id="title680">Hoja.214</title>
			<path
   d="M0 461.38 L5.67 461.38"
   class="st4"
   id="path682" />
		</g>
		<g
   id="group215-319"
   transform="translate(70.8868,-255.493)">
			<title
   id="title685">Hoja.215</title>
			<g
   id="shape216-320"
   transform="translate(461.38,447.207) rotate(90)">
				<title
   id="title687">Hoja.216</title>
				<path
   d="M0 461.38 L14.17 461.38"
   class="st6"
   id="path689" />
			</g>
			<g
   id="shape217-323">
				<title
   id="title692">Hoja.217</title>
				<path
   d="M0 461.38 L14.17 461.38 L14.17 451.93 L9.13 451.93 L9.13 447.21 L0 447.21"
   class="st6"
   id="path694" />
			</g>
			<g
   id="shape218-326"
   transform="translate(-301.383,788.525) rotate(-136.848)">
				<title
   id="title697">Hoja.218</title>
				<path
   d="M0 461.38 L6.91 461.38"
   class="st6"
   id="path699" />
			</g>
		</g>
		<g
   id="shape219-329"
   transform="translate(87.186,-255.493)">
			<title
   id="title703">Hoja.219</title>
			<desc
   id="desc705">videotutoriales.txt</desc>
			<rect
   x="0"
   y="447.207"
   width="106.299"
   height="14.1732"
   class="st5"
   id="rect707" />
			<text
   x="4"
   y="457.89"
   class="st3"
   id="text709">videotutoriales.txt</text>
		</g>
		<g
   id="shape220-332"
   transform="translate(56.7136,-262.58)">
			<title
   id="title712">Hoja.220</title>
			<path
   d="M0 461.38 L14.17 461.38"
   class="st6"
   id="path714" />
		</g>
	</g>
</svg>