<?xml version="1.0" encoding="UTF-8" standalone="no"?>
<!DOCTYPE svg PUBLIC "-//W3C//DTD SVG 1.1//EN" "http://www.w3.org/Graphics/SVG/1.1/DTD/svg11.dtd">
<!-- Generado por Microsoft Visio, SVG Export estructuraRepositorios.svg Página-1 -->
<svg xmlns="http://www.w3.org/2000/svg" xmlns:xlink="http://www.w3.org/1999/xlink" xmlns:ev="http://www.w3.org/2001/xml-events"
		xmlns:v="http://schemas.microsoft.com/visio/2003/SVGExtensions/" width="6.50648in" height="8.57341in"
		viewBox="0 0 468.467 617.285" xml:space="preserve" color-interpolation-filters="sRGB" class="st6">
	<v:documentProperties v:langID="3082" v:metric="true" v:viewMarkup="false">
		<v:userDefs>
			<v:ud v:nameU="msvConvertTheme"/>
		</v:userDefs>
	</v:documentProperties>

	<style type="text/css">
	<![CDATA[
		.st1 {fill:none;stroke:#000000;stroke-linecap:round;stroke-linejoin:round;stroke-width:0.75}
		.st2 {fill:#ffffff;stroke:#000000;stroke-linecap:round;stroke-linejoin:round;stroke-width:0.75}
		.st3 {fill:#000000;font-family:Calibri;font-size:1.00001em}
		.st4 {stroke:#000000;stroke-linecap:round;stroke-linejoin:round;stroke-width:0.75}
		.st5 {fill:none;stroke:none;stroke-linecap:round;stroke-linejoin:round;stroke-width:0.75}
		.st6 {fill:none;fill-rule:evenodd;font-size:12px;overflow:visible;stroke-linecap:square;stroke-miterlimit:3}
	]]>
	</style>

	<g v:mID="0" v:index="1" v:groupContext="foregroundPage">
		<title>Página-1</title>
		<v:pageProperties v:drawingScale="0.0393701" v:pageScale="0.0393701" v:drawingUnits="24" v:shadowOffsetX="8.50394"
				v:shadowOffsetY="-8.50394"/>
		<g id="shape113-1" v:mID="113" v:groupContext="shape" transform="translate(0.375,-0.375)">
			<title>Hoja.113</title>
			<rect x="0" y="0.749998" width="467.717" height="616.535" class="st1"/>
		</g>
		<g id="shape1-3" v:mID="1" v:groupContext="shape" transform="translate(7.46161,-588.564)">
			<title>Hoja.1</title>
			<desc>Repositorio</desc>
			<v:textBlock v:margins="rect(4,4,4,4)" v:tabSpace="42.5197"/>
			<v:textRect cx="46.063" cy="606.656" width="92.13" height="21.2598"/>
			<rect x="0" y="596.026" width="92.126" height="21.2598" class="st2"/>
			<text x="17.97" y="610.26" class="st3" v:langID="3082"><v:paragraph v:horizAlign="1"/><v:tabList/>Repositorio</text>		</g>
		<g id="shape2-6" v:mID="2" v:groupContext="shape" transform="translate(28.7215,-553.131)">
			<title>Hoja.2</title>
			<desc>Docs</desc>
			<v:textBlock v:margins="rect(4,4,4,4)" v:tabSpace="42.5197"/>
			<v:textRect cx="46.063" cy="606.656" width="92.13" height="21.2598"/>
			<rect x="0" y="596.026" width="92.126" height="21.2598" class="st2"/>
			<text x="34.32" y="610.26" class="st3" v:langID="3082"><v:paragraph v:horizAlign="1"/><v:tabList/>Docs</text>		</g>
		<g id="shape3-9" v:mID="3" v:groupContext="shape" transform="translate(49.9813,-524.784)">
			<title>Hoja.3</title>
			<desc>Mockups</desc>
			<v:textBlock v:margins="rect(4,4,4,4)" v:tabSpace="42.5197"/>
			<v:textRect cx="46.063" cy="606.656" width="92.13" height="21.2598"/>
			<rect x="0" y="596.026" width="92.126" height="21.2598" class="st2"/>
			<text x="23.85" y="610.26" class="st3" v:langID="3082"><v:paragraph v:horizAlign="1"/><v:tabList/>Mockups</text>		</g>
		<g id="shape4-12" v:mID="4" v:groupContext="shape" transform="translate(71.2411,-496.438)">
			<title>Hoja.4</title>
			<desc>US001-&#60;Name&#62;</desc>
			<v:textBlock v:margins="rect(4,4,4,4)" v:tabSpace="42.5197"/>
			<v:textRect cx="46.063" cy="606.656" width="92.13" height="21.2598"/>
			<rect x="0" y="596.026" width="92.126" height="21.2598" class="st2"/>
			<text x="7.99" y="610.26" class="st3" v:langID="3082"><v:paragraph v:horizAlign="1"/><v:tabList/>US001-&#60;Name&#62;</text>		</g>
		<g id="shape5-15" v:mID="5" v:groupContext="shape" transform="translate(71.2411,-468.092)">
			<title>Hoja.5</title>
			<desc>US002-&#60;Name&#62;</desc>
			<v:textBlock v:margins="rect(4,4,4,4)" v:tabSpace="42.5197"/>
			<v:textRect cx="46.063" cy="606.656" width="92.13" height="21.2598"/>
			<rect x="0" y="596.026" width="92.126" height="21.2598" class="st2"/>
			<text x="7.99" y="610.26" class="st3" v:langID="3082"><v:paragraph v:horizAlign="1"/><v:tabList/>US002-&#60;Name&#62;</text>		</g>
		<g id="shape6-18" v:mID="6" v:groupContext="shape" transform="translate(71.2411,-439.745)">
			<title>Hoja.6</title>
			<desc>….</desc>
			<v:textBlock v:margins="rect(4,4,4,4)" v:tabSpace="42.5197"/>
			<v:textRect cx="46.063" cy="606.656" width="92.13" height="21.2598"/>
			<rect x="0" y="596.026" width="92.126" height="21.2598" class="st2"/>
			<text x="40.41" y="610.26" class="st3" v:langID="3082"><v:paragraph v:horizAlign="1"/><v:tabList/>….</text>		</g>
		<g id="shape7-21" v:mID="7" v:groupContext="shape" transform="translate(49.9813,-411.399)">
			<title>Hoja.7</title>
			<desc>Models</desc>
			<v:textBlock v:margins="rect(4,4,4,4)" v:tabSpace="42.5197"/>
			<v:textRect cx="46.063" cy="606.656" width="92.13" height="21.2598"/>
			<rect x="0" y="596.026" width="92.126" height="21.2598" class="st2"/>
			<text x="27.91" y="610.26" class="st3" v:langID="3082"><v:paragraph v:horizAlign="1"/><v:tabList/>Models</text>		</g>
		<g id="group11-24" transform="translate(71.2411,-390.139)" v:mID="11" v:groupContext="group">
			<title>Hoja.11</title>
			<g id="shape8-25" v:mID="8" v:groupContext="shape" transform="translate(617.285,603.112) rotate(90)">
				<title>Hoja.8</title>
				<path d="M0 617.29 L14.17 617.29" class="st4"/>
			</g>
			<g id="shape9-28" v:mID="9" v:groupContext="shape">
				<title>Hoja.9</title>
				<path d="M0 617.29 L14.17 617.29 L14.17 607.84 L9.13 607.84 L9.13 603.11 L0 603.11" class="st4"/>
			</g>
			<g id="shape10-31" v:mID="10" v:groupContext="shape" transform="translate(-408.014,1058.17) rotate(-136.848)">
				<title>Hoja.10</title>
				<path d="M0 617.29 L6.91 617.29" class="st4"/>
			</g>
		</g>
		<g id="shape12-34" v:mID="12" v:groupContext="shape" transform="translate(87.5404,-390.139)">
			<title>Hoja.12</title>
			<desc>DomainModel.png</desc>
			<v:textBlock v:margins="rect(4,4,4,4)" v:tabSpace="42.5197"/>
			<v:textRect cx="55.6299" cy="610.199" width="111.26" height="14.1732"/>
			<rect x="0" y="603.112" width="111.26" height="14.1732" class="st5"/>
			<text x="4" y="613.8" class="st3" v:langID="3082"><v:paragraph/><v:tabList/>DomainModel.png</text>		</g>
		<g id="group13-37" transform="translate(71.2411,-368.879)" v:mID="13" v:groupContext="group">
			<title>Hoja.13</title>
			<g id="shape14-38" v:mID="14" v:groupContext="shape" transform="translate(617.285,603.112) rotate(90)">
				<title>Hoja.14</title>
				<path d="M0 617.29 L14.17 617.29" class="st4"/>
			</g>
			<g id="shape15-41" v:mID="15" v:groupContext="shape">
				<title>Hoja.15</title>
				<path d="M0 617.29 L14.17 617.29 L14.17 607.84 L9.13 607.84 L9.13 603.11 L0 603.11" class="st4"/>
			</g>
			<g id="shape16-44" v:mID="16" v:groupContext="shape" transform="translate(-408.014,1058.17) rotate(-136.848)">
				<title>Hoja.16</title>
				<path d="M0 617.29 L6.91 617.29" class="st4"/>
			</g>
		</g>
		<g id="shape18-47" v:mID="18" v:groupContext="shape" transform="translate(49.9813,-340.532)">
			<title>Hoja.18</title>
			<desc>Tutorials</desc>
			<v:textBlock v:margins="rect(4,4,4,4)" v:tabSpace="42.5197"/>
			<v:textRect cx="46.063" cy="606.656" width="92.13" height="21.2598"/>
			<rect x="0" y="596.026" width="92.126" height="21.2598" class="st2"/>
			<text x="24.75" y="610.26" class="st3" v:langID="3082"><v:paragraph v:horizAlign="1"/><v:tabList/>Tutorials</text>		</g>
		<g id="group19-50" transform="translate(71.2411,-319.273)" v:mID="19" v:groupContext="group">
			<title>Hoja.19</title>
			<g id="shape20-51" v:mID="20" v:groupContext="shape" transform="translate(617.285,603.112) rotate(90)">
				<title>Hoja.20</title>
				<path d="M0 617.29 L14.17 617.29" class="st4"/>
			</g>
			<g id="shape21-54" v:mID="21" v:groupContext="shape">
				<title>Hoja.21</title>
				<path d="M0 617.29 L14.17 617.29 L14.17 607.84 L9.13 607.84 L9.13 603.11 L0 603.11" class="st4"/>
			</g>
			<g id="shape22-57" v:mID="22" v:groupContext="shape" transform="translate(-408.014,1058.17) rotate(-136.848)">
				<title>Hoja.22</title>
				<path d="M0 617.29 L6.91 617.29" class="st4"/>
			</g>
		</g>
		<g id="shape23-60" v:mID="23" v:groupContext="shape" transform="translate(87.5404,-319.273)">
			<title>Hoja.23</title>
			<desc>userManual.pdf</desc>
			<v:textBlock v:margins="rect(4,4,4,4)" v:tabSpace="42.5197"/>
			<v:textRect cx="53.1496" cy="610.199" width="106.3" height="14.1732"/>
			<rect x="0" y="603.112" width="106.299" height="14.1732" class="st5"/>
			<text x="4" y="613.8" class="st3" v:langID="3082"><v:paragraph/><v:tabList/>userManual.pdf</text>		</g>
		<g id="shape24-63" v:mID="24" v:groupContext="shape" transform="translate(71.2411,-290.926)">
			<title>Hoja.24</title>
			<desc>US001-&#60;Name&#62;</desc>
			<v:textBlock v:margins="rect(4,4,4,4)" v:tabSpace="42.5197"/>
			<v:textRect cx="46.063" cy="606.656" width="92.13" height="21.2598"/>
			<rect x="0" y="596.026" width="92.126" height="21.2598" class="st2"/>
			<text x="7.99" y="610.26" class="st3" v:langID="3082"><v:paragraph v:horizAlign="1"/><v:tabList/>US001-&#60;Name&#62;</text>		</g>
		<g id="shape25-66" v:mID="25" v:groupContext="shape" transform="translate(71.2411,-262.58)">
			<title>Hoja.25</title>
			<desc>US002-&#60;Name&#62;</desc>
			<v:textBlock v:margins="rect(4,4,4,4)" v:tabSpace="42.5197"/>
			<v:textRect cx="46.063" cy="606.656" width="92.13" height="21.2598"/>
			<rect x="0" y="596.026" width="92.126" height="21.2598" class="st2"/>
			<text x="7.99" y="610.26" class="st3" v:langID="3082"><v:paragraph v:horizAlign="1"/><v:tabList/>US002-&#60;Name&#62;</text>		</g>
		<g id="shape26-69" v:mID="26" v:groupContext="shape" transform="translate(71.2411,-234.233)">
			<title>Hoja.26</title>
			<desc>….</desc>
			<v:textBlock v:margins="rect(4,4,4,4)" v:tabSpace="42.5197"/>
			<v:textRect cx="46.063" cy="606.656" width="92.13" height="21.2598"/>
			<rect x="0" y="596.026" width="92.126" height="21.2598" class="st2"/>
			<text x="40.41" y="610.26" class="st3" v:langID="3082"><v:paragraph v:horizAlign="1"/><v:tabList/>….</text>		</g>
		<g id="shape27-72" v:mID="27" v:groupContext="shape" transform="translate(49.9813,-205.887)">
			<title>Hoja.27</title>
			<desc>Test Plans</desc>
			<v:textBlock v:margins="rect(4,4,4,4)" v:tabSpace="42.5197"/>
			<v:textRect cx="46.063" cy="606.656" width="92.13" height="21.2598"/>
			<rect x="0" y="596.026" width="92.126" height="21.2598" class="st2"/>
			<text x="21.59" y="610.26" class="st3" v:langID="3082"><v:paragraph v:horizAlign="1"/><v:tabList/>Test Plans</text>		</g>
		<g id="group43-75" transform="translate(71.2411,-184.627)" v:mID="43" v:groupContext="group">
			<title>Hoja.43</title>
			<g id="shape44-76" v:mID="44" v:groupContext="shape" transform="translate(617.285,603.112) rotate(90)">
				<title>Hoja.44</title>
				<path d="M0 617.29 L14.17 617.29" class="st4"/>
			</g>
			<g id="shape45-79" v:mID="45" v:groupContext="shape">
				<title>Hoja.45</title>
				<path d="M0 617.29 L14.17 617.29 L14.17 607.84 L9.13 607.84 L9.13 603.11 L0 603.11" class="st4"/>
			</g>
			<g id="shape46-82" v:mID="46" v:groupContext="shape" transform="translate(-408.014,1058.17) rotate(-136.848)">
				<title>Hoja.46</title>
				<path d="M0 617.29 L6.91 617.29" class="st4"/>
			</g>
		</g>
		<g id="shape47-85" v:mID="47" v:groupContext="shape" transform="translate(87.5404,-184.627)">
			<title>Hoja.47</title>
			<desc>US001-Name-TestPlan.pdf</desc>
			<v:textBlock v:margins="rect(4,4,4,4)" v:tabSpace="42.5197"/>
			<v:textRect cx="69.8031" cy="610.199" width="139.61" height="14.1732"/>
			<rect x="0" y="603.112" width="139.606" height="14.1732" class="st5"/>
			<text x="4" y="613.8" class="st3" v:langID="3082"><v:paragraph/><v:tabList/>US001-Name-TestPlan.pdf</text>		</g>
		<g id="group28-88" transform="translate(71.2411,-163.367)" v:mID="28" v:groupContext="group">
			<title>Hoja.28</title>
			<g id="shape29-89" v:mID="29" v:groupContext="shape" transform="translate(617.285,603.112) rotate(90)">
				<title>Hoja.29</title>
				<path d="M0 617.29 L14.17 617.29" class="st4"/>
			</g>
			<g id="shape30-92" v:mID="30" v:groupContext="shape">
				<title>Hoja.30</title>
				<path d="M0 617.29 L14.17 617.29 L14.17 607.84 L9.13 607.84 L9.13 603.11 L0 603.11" class="st4"/>
			</g>
			<g id="shape48-95" v:mID="48" v:groupContext="shape" transform="translate(-408.014,1058.17) rotate(-136.848)">
				<title>Hoja.48</title>
				<path d="M0 617.29 L6.91 617.29" class="st4"/>
			</g>
		</g>
		<g id="shape49-98" v:mID="49" v:groupContext="shape" transform="translate(87.5404,-163.367)">
			<title>Hoja.49</title>
			<desc>US001-Name-TestReport.pdf</desc>
			<v:textBlock v:margins="rect(4,4,4,4)" v:tabSpace="42.5197"/>
			<v:textRect cx="80.4331" cy="610.199" width="160.87" height="14.1732"/>
			<rect x="0" y="603.112" width="160.866" height="14.1732" class="st5"/>
			<text x="4" y="613.8" class="st3" v:langID="3082"><v:paragraph/><v:tabList/>US001-Name-TestReport.pdf</text>		</g>
		<g id="shape56-101" v:mID="56" v:groupContext="shape" transform="translate(14.5482,-564.469)">
			<title>Hoja.56</title>
			<path d="M14.17 617.29 L0 617.29 L0 593.19" class="st4"/>
		</g>
		<g id="shape57-104" v:mID="57" v:groupContext="shape" transform="translate(35.8081,-82.5797)">
			<title>Hoja.57</title>
			<path d="M0 146.73 L0 617.29 L14.17 617.29" class="st4"/>
		</g>
		<g id="shape58-107" v:mID="58" v:groupContext="shape" transform="translate(674.353,92.501) rotate(90)">
			<title>Hoja.58</title>
			<path d="M0 617.29 L73.7 617.29" class="st4"/>
		</g>
		<g id="shape59-110" v:mID="59" v:groupContext="shape" transform="translate(674.353,205.887) rotate(90)">
			<title>Hoja.59</title>
			<path d="M0 617.29 L35.43 617.29" class="st4"/>
		</g>
		<g id="shape60-113" v:mID="60" v:groupContext="shape" transform="translate(674.353,276.753) rotate(90)">
			<title>Hoja.60</title>
			<path d="M0 617.29 L94.96 617.29" class="st4"/>
		</g>
		<g id="shape61-116" v:mID="61" v:groupContext="shape" transform="translate(57.0679,-326.359)">
			<title>Hoja.61</title>
			<path d="M0 617.29 L14.17 617.29" class="st4"/>
		</g>
		<g id="shape62-119" v:mID="62" v:groupContext="shape" transform="translate(57.0679,-245.572)">
			<title>Hoja.62</title>
			<path d="M0 617.29 L14.17 617.29" class="st4"/>
		</g>
		<g id="shape63-122" v:mID="63" v:groupContext="shape" transform="translate(57.0679,-375.966)">
			<title>Hoja.63</title>
			<path d="M0 617.29 L14.17 617.29" class="st4"/>
		</g>
		<g id="shape64-125" v:mID="64" v:groupContext="shape" transform="translate(57.0679,-397.225)">
			<title>Hoja.64</title>
			<path d="M0 617.29 L14.17 617.29" class="st4"/>
		</g>
		<g id="shape65-128" v:mID="65" v:groupContext="shape" transform="translate(57.0679,-451.084)">
			<title>Hoja.65</title>
			<path d="M0 617.29 L14.17 617.29" class="st4"/>
		</g>
		<g id="shape66-131" v:mID="66" v:groupContext="shape" transform="translate(57.0679,-106.674)">
			<title>Hoja.66</title>
			<path d="M0 518.07 L0 617.29 L14.17 617.29" class="st4"/>
		</g>
		<g id="shape67-134" v:mID="67" v:groupContext="shape" transform="translate(57.0679,-170.454)">
			<title>Hoja.67</title>
			<path d="M0 617.29 L14.17 617.29" class="st4"/>
		</g>
		<g id="shape68-137" v:mID="68" v:groupContext="shape" transform="translate(57.0679,-191.714)">
			<title>Hoja.68</title>
			<path d="M0 617.29 L14.17 617.29" class="st4"/>
		</g>
		<g id="shape71-140" v:mID="71" v:groupContext="shape" transform="translate(14.5482,-581.477)">
			<title>Hoja.71</title>
			<path d="M0 617.29 L191.34 617.29" class="st4"/>
		</g>
		<g id="shape72-143" v:mID="72" v:groupContext="shape" transform="translate(49.9813,698.448) rotate(180)">
			<title>Hoja.72</title>
			<path d="M0 617.29 L14.17 617.29" class="st4"/>
		</g>
		<g id="shape73-146" v:mID="73" v:groupContext="shape" transform="translate(71.2411,727.361) rotate(180)">
			<title>Hoja.73</title>
			<path d="M0 617.29 L14.17 617.29" class="st4"/>
		</g>
		<g id="shape74-149" v:mID="74" v:groupContext="shape" transform="translate(71.2411,756.558) rotate(180)">
			<title>Hoja.74</title>
			<path d="M0 617.29 L14.17 617.29" class="st4"/>
		</g>
		<g id="shape75-152" v:mID="75" v:groupContext="shape" transform="translate(71.2411,933.723) rotate(180)">
			<title>Hoja.75</title>
			<path d="M0 617.29 L14.17 617.29" class="st4"/>
		</g>
		<g id="shape76-155" v:mID="76" v:groupContext="shape" transform="translate(71.2411,962.07) rotate(180)">
			<title>Hoja.76</title>
			<path d="M0 617.29 L14.17 617.29" class="st4"/>
		</g>
		<g id="shape98-158" v:mID="98" v:groupContext="shape" transform="translate(205.887,-574.391)">
			<title>Hoja.98</title>
			<path d="M0 610.2 L35.43 610.2 L35.43 617.29" class="st4"/>
		</g>
		<g id="shape115-161" v:mID="115" v:groupContext="shape" transform="translate(49.2726,-72.6585)">
			<title>Hoja.115</title>
			<desc>Quality Report</desc>
			<v:textBlock v:margins="rect(4,4,4,4)" v:tabSpace="42.5197"/>
			<v:textRect cx="46.063" cy="606.656" width="92.13" height="21.2598"/>
			<rect x="0" y="596.026" width="92.126" height="21.2598" class="st2"/>
			<text x="10.5" y="610.26" class="st3" v:langID="3082"><v:paragraph v:horizAlign="1"/><v:tabList/>Quality Report</text>		</g>
		<g id="group116-164" transform="translate(70.5325,-51.3986)" v:mID="116" v:groupContext="group">
			<title>Hoja.116</title>
			<g id="shape117-165" v:mID="117" v:groupContext="shape" transform="translate(617.285,603.112) rotate(90)">
				<title>Hoja.117</title>
				<path d="M0 617.29 L14.17 617.29" class="st4"/>
			</g>
			<g id="shape118-168" v:mID="118" v:groupContext="shape">
				<title>Hoja.118</title>
				<path d="M0 617.29 L14.17 617.29 L14.17 607.84 L9.13 607.84 L9.13 603.11 L0 603.11" class="st4"/>
			</g>
			<g id="shape119-171" v:mID="119" v:groupContext="shape" transform="translate(-408.014,1058.17) rotate(-136.848)">
				<title>Hoja.119</title>
				<path d="M0 617.29 L6.91 617.29" class="st4"/>
			</g>
		</g>
		<g id="shape120-174" v:mID="120" v:groupContext="shape" transform="translate(86.8317,-51.3986)">
			<title>Hoja.120</title>
			<desc>US001-Name-QAReport.pdf</desc>
			<v:textBlock v:margins="rect(4,4,4,4)" v:tabSpace="42.5197"/>
			<v:textRect cx="82.5591" cy="610.199" width="165.12" height="14.1732"/>
			<rect x="0" y="603.112" width="165.118" height="14.1732" class="st5"/>
			<text x="4" y="613.8" class="st3" v:langID="3082"><v:paragraph/><v:tabList/>US001-Name-QAReport.pdf</text>		</g>
		<g id="group121-177" transform="translate(70.5325,-30.1388)" v:mID="121" v:groupContext="group">
			<title>Hoja.121</title>
			<g id="shape122-178" v:mID="122" v:groupContext="shape" transform="translate(617.285,603.112) rotate(90)">
				<title>Hoja.122</title>
				<path d="M0 617.29 L14.17 617.29" class="st4"/>
			</g>
			<g id="shape123-181" v:mID="123" v:groupContext="shape">
				<title>Hoja.123</title>
				<path d="M0 617.29 L14.17 617.29 L14.17 607.84 L9.13 607.84 L9.13 603.11 L0 603.11" class="st4"/>
			</g>
			<g id="shape124-184" v:mID="124" v:groupContext="shape" transform="translate(-408.014,1058.17) rotate(-136.848)">
				<title>Hoja.124</title>
				<path d="M0 617.29 L6.91 617.29" class="st4"/>
			</g>
		</g>
		<g id="shape125-187" v:mID="125" v:groupContext="shape" transform="translate(86.8317,-30.1388)">
			<title>Hoja.125</title>
			<desc>US002-Name-QAReport.pdf</desc>
			<v:textBlock v:margins="rect(4,4,4,4)" v:tabSpace="42.5197"/>
			<v:textRect cx="72.6378" cy="610.199" width="145.28" height="14.1732"/>
			<rect x="0" y="603.112" width="145.276" height="14.1732" class="st5"/>
			<text x="4" y="613.8" class="st3" v:langID="3082"><v:paragraph/><v:tabList/>US002-Name-QAReport.pdf</text>		</g>
		<g id="group126-190" transform="translate(70.5325,-8.87894)" v:mID="126" v:groupContext="group">
			<title>Hoja.126</title>
			<g id="shape127-191" v:mID="127" v:groupContext="shape" transform="translate(617.285,603.112) rotate(90)">
				<title>Hoja.127</title>
				<path d="M0 617.29 L14.17 617.29" class="st4"/>
			</g>
			<g id="shape128-194" v:mID="128" v:groupContext="shape">
				<title>Hoja.128</title>
				<path d="M0 617.29 L14.17 617.29 L14.17 607.84 L9.13 607.84 L9.13 603.11 L0 603.11" class="st4"/>
			</g>
			<g id="shape129-197" v:mID="129" v:groupContext="shape" transform="translate(-408.014,1058.17) rotate(-136.848)">
				<title>Hoja.129</title>
				<path d="M0 617.29 L6.91 617.29" class="st4"/>
			</g>
		</g>
		<g id="shape130-200" v:mID="130" v:groupContext="shape" transform="translate(86.8317,-8.87894)">
			<title>Hoja.130</title>
			<desc>...</desc>
			<v:textBlock v:margins="rect(4,4,4,4)" v:tabSpace="42.5197"/>
			<v:textRect cx="69.8031" cy="610.199" width="139.61" height="14.1732"/>
			<rect x="0" y="603.112" width="139.606" height="14.1732" class="st5"/>
			<text x="4" y="613.8" class="st3" v:langID="3082"><v:paragraph/><v:tabList/>...</text>		</g>
		<g id="shape131-203" v:mID="131" v:groupContext="shape" transform="translate(56.3593,-15.9656)">
			<title>Hoja.131</title>
			<path d="M0 560.59 L0 617.29 L14.17 617.29" class="st4"/>
		</g>
		<g id="shape132-206" v:mID="132" v:groupContext="shape" transform="translate(56.3593,-37.2254)">
			<title>Hoja.132</title>
			<path d="M0 617.29 L14.17 617.29" class="st4"/>
		</g>
		<g id="shape133-209" v:mID="133" v:groupContext="shape" transform="translate(56.3593,-58.4852)">
			<title>Hoja.133</title>
			<path d="M0 617.29 L14.17 617.29" class="st4"/>
		</g>
		<g id="shape134-212" v:mID="134" v:groupContext="shape" transform="translate(35.8081,-422.737)">
			<title>Hoja.134</title>
			<path d="M0 617.29 L14.17 617.29" class="st4"/>
		</g>
		<g id="shape135-215" v:mID="135" v:groupContext="shape" transform="translate(49.9813,882.7) rotate(180)">
			<title>Hoja.135</title>
			<path d="M0 617.29 L14.17 617.29" class="st4"/>
		</g>
		<g id="shape136-218" v:mID="136" v:groupContext="shape" transform="translate(35.8081,-217.225)">
			<title>Hoja.136</title>
			<path d="M0 617.29 L14.17 617.29" class="st4"/>
		</g>
		<g id="shape147-221" v:mID="147" v:groupContext="shape" transform="translate(87.5404,-368.879)">
			<title>Hoja.147</title>
			<desc>AppArchitecture.png</desc>
			<v:textBlock v:margins="rect(4,4,4,4)" v:tabSpace="42.5197"/>
			<v:textRect cx="55.6299" cy="610.199" width="111.26" height="14.1732"/>
			<rect x="0" y="603.112" width="111.26" height="14.1732" class="st5"/>
			<text x="4" y="613.8" class="st3" v:langID="3082"><v:paragraph/><v:tabList/>AppArchitecture.png</text>		</g>
		<g id="group148-224" transform="translate(71.2411,-142.107)" v:mID="148" v:groupContext="group">
			<title>Hoja.148</title>
			<g id="shape149-225" v:mID="149" v:groupContext="shape" transform="translate(617.285,603.112) rotate(90)">
				<title>Hoja.149</title>
				<path d="M0 617.29 L14.17 617.29" class="st4"/>
			</g>
			<g id="shape150-228" v:mID="150" v:groupContext="shape">
				<title>Hoja.150</title>
				<path d="M0 617.29 L14.17 617.29 L14.17 607.84 L9.13 607.84 L9.13 603.11 L0 603.11" class="st4"/>
			</g>
			<g id="shape151-231" v:mID="151" v:groupContext="shape" transform="translate(-408.014,1058.17) rotate(-136.848)">
				<title>Hoja.151</title>
				<path d="M0 617.29 L6.91 617.29" class="st4"/>
			</g>
		</g>
		<g id="shape152-234" v:mID="152" v:groupContext="shape" transform="translate(87.5404,-142.107)">
			<title>Hoja.152</title>
			<desc>US002-Name-TestPlan.pdf</desc>
			<v:textBlock v:margins="rect(4,4,4,4)" v:tabSpace="42.5197"/>
			<v:textRect cx="69.8031" cy="610.199" width="139.61" height="14.1732"/>
			<rect x="0" y="603.112" width="139.606" height="14.1732" class="st5"/>
			<text x="4" y="613.8" class="st3" v:langID="3082"><v:paragraph/><v:tabList/>US002-Name-TestPlan.pdf</text>		</g>
		<g id="group153-237" transform="translate(71.2411,-120.847)" v:mID="153" v:groupContext="group">
			<title>Hoja.153</title>
			<g id="shape154-238" v:mID="154" v:groupContext="shape" transform="translate(617.285,603.112) rotate(90)">
				<title>Hoja.154</title>
				<path d="M0 617.29 L14.17 617.29" class="st4"/>
			</g>
			<g id="shape155-241" v:mID="155" v:groupContext="shape">
				<title>Hoja.155</title>
				<path d="M0 617.29 L14.17 617.29 L14.17 607.84 L9.13 607.84 L9.13 603.11 L0 603.11" class="st4"/>
			</g>
			<g id="shape156-244" v:mID="156" v:groupContext="shape" transform="translate(-408.014,1058.17) rotate(-136.848)">
				<title>Hoja.156</title>
				<path d="M0 617.29 L6.91 617.29" class="st4"/>
			</g>
		</g>
		<g id="shape157-247" v:mID="157" v:groupContext="shape" transform="translate(87.5404,-120.847)">
			<title>Hoja.157</title>
			<desc>US002-Name-TestReport.pdf</desc>
			<v:textBlock v:margins="rect(4,4,4,4)" v:tabSpace="42.5197"/>
			<v:textRect cx="80.4331" cy="610.199" width="160.87" height="14.1732"/>
			<rect x="0" y="603.112" width="160.866" height="14.1732" class="st5"/>
			<text x="4" y="613.8" class="st3" v:langID="3082"><v:paragraph/><v:tabList/>US002-Name-TestReport.pdf</text>		</g>
		<g id="shape158-250" v:mID="158" v:groupContext="shape" transform="translate(57.0679,-149.194)">
			<title>Hoja.158</title>
			<path d="M0 617.29 L14.17 617.29" class="st4"/>
		</g>
		<g id="group159-253" transform="translate(71.2411,-99.5876)" v:mID="159" v:groupContext="group">
			<title>Hoja.159</title>
			<g id="shape160-254" v:mID="160" v:groupContext="shape" transform="translate(617.285,603.112) rotate(90)">
				<title>Hoja.160</title>
				<path d="M0 617.29 L14.17 617.29" class="st4"/>
			</g>
			<g id="shape161-257" v:mID="161" v:groupContext="shape">
				<title>Hoja.161</title>
				<path d="M0 617.29 L14.17 617.29 L14.17 607.84 L9.13 607.84 L9.13 603.11 L0 603.11" class="st4"/>
			</g>
			<g id="shape162-260" v:mID="162" v:groupContext="shape" transform="translate(-408.014,1058.17) rotate(-136.848)">
				<title>Hoja.162</title>
				<path d="M0 617.29 L6.91 617.29" class="st4"/>
			</g>
		</g>
		<g id="shape163-263" v:mID="163" v:groupContext="shape" transform="translate(87.5404,-99.5876)">
			<title>Hoja.163</title>
			<desc>...</desc>
			<v:textBlock v:margins="rect(4,4,4,4)" v:tabSpace="42.5197"/>
			<v:textRect cx="69.8031" cy="610.199" width="139.61" height="14.1732"/>
			<rect x="0" y="603.112" width="139.606" height="14.1732" class="st5"/>
			<text x="4" y="613.8" class="st3" v:langID="3082"><v:paragraph/><v:tabList/>...</text>		</g>
		<g id="shape164-266" v:mID="164" v:groupContext="shape" transform="translate(57.0679,-127.934)">
			<title>Hoja.164</title>
			<path d="M0 617.29 L14.17 617.29" class="st4"/>
		</g>
		<g id="group188-269" transform="translate(241.32,-487.934)" v:mID="188" v:groupContext="group">
			<title>Hoja.188</title>
			<g id="group165-270" transform="translate(0,-21.2598)" v:mID="165" v:groupContext="group">
				<title>Hoja.165</title>
				<g id="shape166-271" v:mID="166" v:groupContext="shape" transform="translate(14.1732,-42.5197)">
					<title>Hoja.166</title>
					<desc>Releases</desc>
					<v:textBlock v:margins="rect(4,4,4,4)" v:tabSpace="42.5197"/>
					<v:textRect cx="46.063" cy="606.656" width="92.13" height="21.2598"/>
					<rect x="0" y="596.026" width="92.126" height="21.2598" class="st2"/>
					<text x="24.9" y="610.26" class="st3" v:langID="3082"><v:paragraph v:horizAlign="1"/><v:tabList/>Releases</text>				</g>
				<g id="group167-274" transform="translate(35.4331,-21.2598)" v:mID="167" v:groupContext="group">
					<title>Hoja.167</title>
					<g id="shape168-275" v:mID="168" v:groupContext="shape" transform="translate(617.285,603.112) rotate(90)">
						<title>Hoja.168</title>
						<path d="M0 617.29 L14.17 617.29" class="st4"/>
					</g>
					<g id="shape169-278" v:mID="169" v:groupContext="shape">
						<title>Hoja.169</title>
						<path d="M0 617.29 L14.17 617.29 L14.17 607.84 L9.13 607.84 L9.13 603.11 L0 603.11" class="st4"/>
					</g>
					<g id="shape170-281" v:mID="170" v:groupContext="shape"
							transform="translate(-408.014,1058.17) rotate(-136.848)">
						<title>Hoja.170</title>
						<path d="M0 617.29 L6.91 617.29" class="st4"/>
					</g>
				</g>
				<g id="shape171-284" v:mID="171" v:groupContext="shape" transform="translate(52.7953,-21.2598)">
					<title>Hoja.171</title>
					<desc>SP00-20171102-BusFinder.apk</desc>
					<v:textBlock v:margins="rect(4,4,4,4)" v:tabSpace="42.5197"/>
					<v:textRect cx="81.8504" cy="610.199" width="163.71" height="14.1732"/>
					<rect x="0" y="603.112" width="163.701" height="14.1732" class="st5"/>
					<text x="4" y="613.8" class="st3" v:langID="3082"><v:paragraph/><v:tabList/>SP00-20171102-BusFinder.apk</text>				</g>
				<g id="group172-287" transform="translate(35.4331,0)" v:mID="172" v:groupContext="group">
					<title>Hoja.172</title>
					<g id="shape173-288" v:mID="173" v:groupContext="shape" transform="translate(617.285,603.112) rotate(90)">
						<title>Hoja.173</title>
						<path d="M0 617.29 L14.17 617.29" class="st4"/>
					</g>
					<g id="shape174-291" v:mID="174" v:groupContext="shape">
						<title>Hoja.174</title>
						<path d="M0 617.29 L14.17 617.29 L14.17 607.84 L9.13 607.84 L9.13 603.11 L0 603.11" class="st4"/>
					</g>
					<g id="shape175-294" v:mID="175" v:groupContext="shape"
							transform="translate(-408.014,1058.17) rotate(-136.848)">
						<title>Hoja.175</title>
						<path d="M0 617.29 L6.91 617.29" class="st4"/>
					</g>
				</g>
				<g id="shape176-297" v:mID="176" v:groupContext="shape" transform="translate(52.7953,0)">
					<title>Hoja.176</title>
					<desc>SP01-20171116-BusFinder.apk</desc>
					<v:textBlock v:margins="rect(4,4,4,4)" v:tabSpace="42.5197"/>
					<v:textRect cx="81.8504" cy="610.199" width="163.71" height="14.1732"/>
					<rect x="0" y="603.112" width="163.701" height="14.1732" class="st5"/>
					<text x="4" y="613.8" class="st3" v:langID="3082"><v:paragraph/><v:tabList/>SP01-20171116-BusFinder.apk</text>				</g>
				<g id="shape177-300" v:mID="177" v:groupContext="shape" transform="translate(-7.99361E-15,-52.4409)">
					<title>Hoja.177</title>
					<path d="M0 617.29 L14.17 617.29" class="st4"/>
				</g>
				<g id="shape178-303" v:mID="178" v:groupContext="shape" transform="translate(21.2598,-7.08661)">
					<title>Hoja.178</title>
					<path d="M0 581.85 L0 617.29 L14.17 617.29" class="st4"/>
				</g>
				<g id="shape179-306" v:mID="179" v:groupContext="shape" transform="translate(21.2598,-28.3465)">
					<title>Hoja.179</title>
					<path d="M0 617.29 L14.17 617.29" class="st4"/>
				</g>
			</g>
			<g id="group180-309" transform="translate(35.4331,0)" v:mID="180" v:groupContext="group">
				<title>Hoja.180</title>
				<g id="shape181-310" v:mID="181" v:groupContext="shape" transform="translate(617.285,603.112) rotate(90)">
					<title>Hoja.181</title>
					<path d="M0 617.29 L14.17 617.29" class="st4"/>
				</g>
				<g id="shape182-313" v:mID="182" v:groupContext="shape">
					<title>Hoja.182</title>
					<path d="M0 617.29 L14.17 617.29 L14.17 607.84 L9.13 607.84 L9.13 603.11 L0 603.11" class="st4"/>
				</g>
				<g id="shape183-316" v:mID="183" v:groupContext="shape" transform="translate(-408.014,1058.17) rotate(-136.848)">
					<title>Hoja.183</title>
					<path d="M0 617.29 L6.91 617.29" class="st4"/>
				</g>
			</g>
			<g id="shape184-319" v:mID="184" v:groupContext="shape" transform="translate(51.7323,-1.13687E-13)">
				<title>Hoja.184</title>
				<desc>...</desc>
				<v:textBlock v:margins="rect(4,4,4,4)" v:tabSpace="42.5197"/>
				<v:textRect cx="69.8031" cy="610.199" width="139.61" height="14.1732"/>
				<rect x="0" y="603.112" width="139.606" height="14.1732" class="st5"/>
				<text x="4" y="613.8" class="st3" v:langID="3082"><v:paragraph/><v:tabList/>...</text>			</g>
			<g id="shape185-322" v:mID="185" v:groupContext="shape" transform="translate(638.545,588.939) rotate(90)">
				<title>Hoja.185</title>
				<path d="M0 617.29 L21.26 617.29" class="st4"/>
			</g>
			<g id="shape186-325" v:mID="186" v:groupContext="shape" transform="translate(21.2598,-7.08662)">
				<title>Hoja.186</title>
				<path d="M0 617.29 L14.17 617.29" class="st4"/>
			</g>
		</g>
		<g id="shape189-328" v:mID="189" v:groupContext="shape" transform="translate(-375.966,55.6506) rotate(-90)">
			<title>Hoja.189</title>
			<path d="M0 617.29 L12.76 617.29" class="st4"/>
		</g>
		<g id="shape190-331" v:mID="190" v:groupContext="shape" transform="translate(241.32,-470.926)">
			<title>Hoja.190</title>
			<path d="M0 526.58 L0 617.29 L14.17 617.29" class="st4"/>
		</g>
		<g id="shape191-334" v:mID="191" v:groupContext="shape" transform="translate(255.493,-461.005)">
			<title>Hoja.191</title>
			<desc>AndroidProject</desc>
			<v:textBlock v:margins="rect(4,4,4,4)" v:tabSpace="42.5197"/>
			<v:textRect cx="46.063" cy="606.656" width="92.13" height="21.2598"/>
			<rect x="0" y="596.026" width="92.126" height="21.2598" class="st2"/>
			<text x="9.18" y="610.26" class="st3" v:langID="3082"><v:paragraph v:horizAlign="1"/><v:tabList/>AndroidProject</text>		</g>
		<g id="shape192-337" v:mID="192" v:groupContext="shape" transform="translate(263.997,-435.493)">
			<title>Hoja.192</title>
			<desc>App/src</desc>
			<v:textBlock v:margins="rect(4,4,4,4)" v:tabSpace="42.5197"/>
			<v:textRect cx="46.063" cy="606.656" width="92.13" height="21.2598"/>
			<rect x="0" y="596.026" width="92.126" height="21.2598" class="st2"/>
			<text x="26.99" y="610.26" class="st3" v:langID="3082"><v:paragraph v:horizAlign="1"/><v:tabList/>App/src</text>		</g>
		<g id="shape193-340" v:mID="193" v:groupContext="shape" transform="translate(258.328,-445.414)">
			<title>Hoja.193</title>
			<path d="M0 601.69 L0 617.29 L5.67 617.29" class="st4"/>
		</g>
		<g id="shape194-343" v:mID="194" v:groupContext="shape" transform="translate(272.501,-409.981)">
			<title>Hoja.194</title>
			<desc>main</desc>
			<v:textBlock v:margins="rect(4,4,4,4)" v:tabSpace="42.5197"/>
			<v:textRect cx="56.6929" cy="606.656" width="113.39" height="21.2598"/>
			<rect x="0" y="596.026" width="113.386" height="21.2598" class="st2"/>
			<text x="44.5" y="610.26" class="st3" v:langID="3082"><v:paragraph v:horizAlign="1"/><v:tabList/>main</text>		</g>
		<g id="shape195-346" v:mID="195" v:groupContext="shape" transform="translate(272.501,-308.643)">
			<title>Hoja.195</title>
			<desc>AndroidTest</desc>
			<v:textBlock v:margins="rect(4,4,4,4)" v:tabSpace="42.5197"/>
			<v:textRect cx="46.063" cy="606.656" width="92.13" height="21.2598"/>
			<rect x="0" y="596.026" width="92.126" height="21.2598" class="st2"/>
			<text x="16.24" y="610.26" class="st3" v:langID="3082"><v:paragraph v:horizAlign="1"/><v:tabList/>AndroidTest</text>		</g>
		<g id="shape196-349" v:mID="196" v:groupContext="shape" transform="translate(272.501,-333.446)">
			<title>Hoja.196</title>
			<desc>test</desc>
			<v:textBlock v:margins="rect(4,4,4,4)" v:tabSpace="42.5197"/>
			<v:textRect cx="46.063" cy="606.656" width="92.13" height="21.2598"/>
			<rect x="0" y="596.026" width="92.126" height="21.2598" class="st2"/>
			<text x="36.71" y="610.26" class="st3" v:langID="3082"><v:paragraph v:horizAlign="1"/><v:tabList/>test</text>		</g>
		<g id="group199-352" transform="translate(281.005,-391.556)" v:mID="199" v:groupContext="group">
			<title>Hoja.199</title>
			<g id="shape197-353" v:mID="197" v:groupContext="shape">
				<title>Hoja.197</title>
				<rect x="0" y="605.947" width="17.0079" height="11.3386" class="st2"/>
			</g>
			<g id="shape198-355" v:mID="198" v:groupContext="shape" transform="translate(3.2474E-14,-11.3386)">
				<title>Hoja.198</title>
				<rect x="0" y="614.451" width="8.50394" height="2.83465" class="st2"/>
			</g>
		</g>
		<g id="group200-357" transform="translate(281.005,-374.548)" v:mID="200" v:groupContext="group">
			<title>Hoja.200</title>
			<g id="shape201-358" v:mID="201" v:groupContext="shape">
				<title>Hoja.201</title>
				<rect x="0" y="605.947" width="17.0079" height="11.3386" class="st2"/>
			</g>
			<g id="shape202-360" v:mID="202" v:groupContext="shape" transform="translate(3.2474E-14,-11.3386)">
				<title>Hoja.202</title>
				<rect x="0" y="614.451" width="8.50394" height="2.83465" class="st2"/>
			</g>
		</g>
		<g id="shape203-362" v:mID="203" v:groupContext="shape" transform="translate(300.847,-391.556)">
			<title>Hoja.203</title>
			<desc>Model</desc>
			<v:textBlock v:margins="rect(4,4,4,4)" v:tabSpace="42.5197"/>
			<v:textRect cx="31.1811" cy="610.199" width="62.37" height="14.1732"/>
			<rect x="0" y="603.112" width="62.3622" height="14.1732" class="st5"/>
			<text x="4" y="613.8" class="st3" v:langID="3082"><v:paragraph/><v:tabList/>Model</text>		</g>
		<g id="shape204-365" v:mID="204" v:groupContext="shape" transform="translate(300.847,-374.548)">
			<title>Hoja.204</title>
			<desc>View</desc>
			<v:textBlock v:margins="rect(4,4,4,4)" v:tabSpace="42.5197"/>
			<v:textRect cx="31.1811" cy="610.199" width="62.37" height="14.1732"/>
			<rect x="0" y="603.112" width="62.3622" height="14.1732" class="st5"/>
			<text x="4" y="613.8" class="st3" v:langID="3082"><v:paragraph/><v:tabList/>View</text>		</g>
		<g id="group205-368" transform="translate(281.005,-357.54)" v:mID="205" v:groupContext="group">
			<title>Hoja.205</title>
			<g id="shape206-369" v:mID="206" v:groupContext="shape">
				<title>Hoja.206</title>
				<rect x="0" y="605.947" width="17.0079" height="11.3386" class="st2"/>
			</g>
			<g id="shape207-371" v:mID="207" v:groupContext="shape" transform="translate(3.2474E-14,-11.3386)">
				<title>Hoja.207</title>
				<rect x="0" y="614.451" width="8.50394" height="2.83465" class="st2"/>
			</g>
		</g>
		<g id="shape208-373" v:mID="208" v:groupContext="shape" transform="translate(300.847,-357.54)">
			<title>Hoja.208</title>
			<desc>Presenter</desc>
			<v:textBlock v:margins="rect(4,4,4,4)" v:tabSpace="42.5197"/>
			<v:textRect cx="31.1811" cy="610.199" width="62.37" height="14.1732"/>
			<rect x="0" y="603.112" width="62.3622" height="14.1732" class="st5"/>
			<text x="4" y="613.8" class="st3" v:langID="3082"><v:paragraph/><v:tabList/>Presenter</text>		</g>
		<g id="shape209-376" v:mID="209" v:groupContext="shape" transform="translate(266.832,-421.32)">
			<title>Hoja.209</title>
			<path d="M0 603.11 L0 617.29 L5.67 617.29" class="st4"/>
		</g>
		<g id="shape210-379" v:mID="210" v:groupContext="shape" transform="translate(266.832,-343.367)">
			<title>Hoja.210</title>
			<path d="M0 539.33 L0 617.29 L5.67 617.29" class="st4"/>
		</g>
		<g id="shape211-382" v:mID="211" v:groupContext="shape" transform="translate(266.832,-319.273)">
			<title>Hoja.211</title>
			<path d="M0 593.19 L0 617.29 L5.67 617.29" class="st4"/>
		</g>
		<g id="shape212-385" v:mID="212" v:groupContext="shape" transform="translate(275.336,-363.21)">
			<title>Hoja.212</title>
			<path d="M5.67 617.29 L0 617.29 L0 570.51" class="st4"/>
		</g>
		<g id="shape213-388" v:mID="213" v:groupContext="shape" transform="translate(275.336,-397.225)">
			<title>Hoja.213</title>
			<path d="M0 617.29 L5.67 617.29" class="st4"/>
		</g>
		<g id="shape214-391" v:mID="214" v:groupContext="shape" transform="translate(275.336,-380.218)">
			<title>Hoja.214</title>
			<path d="M0 617.29 L5.67 617.29" class="st4"/>
		</g>
	</g>
</svg>
