<?xml version="1.0" encoding="UTF-8" standalone="no"?>
<!DOCTYPE svg PUBLIC "-//W3C//DTD SVG 1.1//EN" "http://www.w3.org/Graphics/SVG/1.1/DTD/svg11.dtd">
<!-- Generado por Microsoft Visio, SVG Export estructuraRepositorios.svg Page-1 -->
<svg xmlns="http://www.w3.org/2000/svg" xmlns:xlink="http://www.w3.org/1999/xlink" xmlns:ev="http://www.w3.org/2001/xml-events"
		xmlns:v="http://schemas.microsoft.com/visio/2003/SVGExtensions/" width="8.26772in" height="11.6929in"
		viewBox="0 0 595.276 841.89" xml:space="preserve" color-interpolation-filters="sRGB" class="st8">
	<v:documentProperties v:langID="3082" v:metric="true" v:viewMarkup="false">
		<v:userDefs>
			<v:ud v:nameU="msvNoAutoConnect" v:val="VT0(1):26"/>
			<v:ud v:nameU="msvConvertTheme"/>
		</v:userDefs>
	</v:documentProperties>

	<style type="text/css">
	<![CDATA[
		.st1 {fill:none;stroke:#000000;stroke-linecap:round;stroke-linejoin:round;stroke-width:0.75}
		.st2 {fill:#ffffff;stroke:#000000;stroke-linecap:round;stroke-linejoin:round;stroke-width:0.75}
		.st3 {fill:#000000;font-family:Calibri;font-size:1.00001em}
		.st4 {stroke:#000000;stroke-linecap:round;stroke-linejoin:round;stroke-width:0.75}
		.st5 {fill:none;stroke:none;stroke-linecap:round;stroke-linejoin:round;stroke-width:0.75}
		.st6 {stroke:#000000;stroke-dasharray:0.75,1.5;stroke-linecap:round;stroke-linejoin:round;stroke-width:0.75}
		.st7 {fill:#ffffff;stroke:#000000;stroke-dasharray:0.75,1.5;stroke-linecap:round;stroke-linejoin:round;stroke-width:0.75}
		.st8 {fill:none;fill-rule:evenodd;font-size:12px;overflow:visible;stroke-linecap:square;stroke-miterlimit:3}
	]]>
	</style>

	<g v:mID="0" v:index="1" v:groupContext="foregroundPage">
		<title>Page-1</title>
		<v:pageProperties v:drawingScale="0.0393701" v:pageScale="0.0393701" v:drawingUnits="24" v:shadowOffsetX="8.50394"
				v:shadowOffsetY="-8.50394"/>
		<g id="shape113-1" v:mID="113" v:groupContext="shape" transform="translate(28.3465,-354.331)">
			<title>Hoja.113</title>
			<rect x="0" y="381.26" width="474.803" height="460.63" class="st1"/>
		</g>
		<g id="shape1-3" v:mID="1" v:groupContext="shape" transform="translate(35.4331,-786.614)">
			<title>Hoja.1</title>
			<desc>Repositorio</desc>
			<v:textBlock v:margins="rect(4,4,4,4)" v:tabSpace="42.5197"/>
			<v:textRect cx="46.063" cy="831.26" width="92.13" height="21.2598"/>
			<rect x="0" y="820.63" width="92.126" height="21.2598" class="st2"/>
			<text x="17.97" y="834.86" class="st3" v:langID="3082"><v:paragraph v:horizAlign="1"/><v:tabList/>Repositorio</text>		</g>
		<g id="shape2-6" v:mID="2" v:groupContext="shape" transform="translate(56.6929,-751.181)">
			<title>Hoja.2</title>
			<desc>Docs</desc>
			<v:textBlock v:margins="rect(4,4,4,4)" v:tabSpace="42.5197"/>
			<v:textRect cx="46.063" cy="831.26" width="92.13" height="21.2598"/>
			<rect x="0" y="820.63" width="92.126" height="21.2598" class="st2"/>
			<text x="34.32" y="834.86" class="st3" v:langID="3082"><v:paragraph v:horizAlign="1"/><v:tabList/>Docs</text>		</g>
		<g id="shape7-9" v:mID="7" v:groupContext="shape" transform="translate(77.9528,-722.835)">
			<title>Hoja.7</title>
			<desc>Models</desc>
			<v:textBlock v:margins="rect(4,4,4,4)" v:tabSpace="42.5197"/>
			<v:textRect cx="46.063" cy="831.26" width="92.13" height="21.2598"/>
			<rect x="0" y="820.63" width="92.126" height="21.2598" class="st2"/>
			<text x="27.91" y="834.86" class="st3" v:langID="3082"><v:paragraph v:horizAlign="1"/><v:tabList/>Models</text>		</g>
		<g id="group11-12" transform="translate(99.2126,-701.575)" v:mID="11" v:groupContext="group">
			<title>Hoja.11</title>
			<g id="shape8-13" v:mID="8" v:groupContext="shape" transform="translate(841.89,827.717) rotate(90)">
				<title>Hoja.8</title>
				<path d="M0 841.89 L14.17 841.89" class="st4"/>
			</g>
			<g id="shape9-16" v:mID="9" v:groupContext="shape">
				<title>Hoja.9</title>
				<path d="M0 841.89 L14.17 841.89 L14.17 832.44 L9.13 832.44 L9.13 827.72 L0 827.72" class="st4"/>
			</g>
			<g id="shape10-19" v:mID="10" v:groupContext="shape" transform="translate(-561.63,1446.63) rotate(-136.848)">
				<title>Hoja.10</title>
				<path d="M0 841.89 L6.91 841.89" class="st4"/>
			</g>
		</g>
		<g id="shape12-22" v:mID="12" v:groupContext="shape" transform="translate(115.512,-701.575)">
			<title>Hoja.12</title>
			<desc>EntitiesModel.png</desc>
			<v:textBlock v:margins="rect(4,4,4,4)" v:tabSpace="42.5197"/>
			<v:textRect cx="55.6299" cy="834.803" width="111.26" height="14.1732"/>
			<rect x="0" y="827.717" width="111.26" height="14.1732" class="st5"/>
			<text x="4" y="838.4" class="st3" v:langID="3082"><v:paragraph/><v:tabList/>EntitiesModel.png</text>		</g>
		<g id="group13-25" transform="translate(99.2126,-680.315)" v:mID="13" v:groupContext="group">
			<title>Hoja.13</title>
			<g id="shape14-26" v:mID="14" v:groupContext="shape" transform="translate(841.89,827.717) rotate(90)">
				<title>Hoja.14</title>
				<path d="M0 841.89 L14.17 841.89" class="st4"/>
			</g>
			<g id="shape15-29" v:mID="15" v:groupContext="shape">
				<title>Hoja.15</title>
				<path d="M0 841.89 L14.17 841.89 L14.17 832.44 L9.13 832.44 L9.13 827.72 L0 827.72" class="st4"/>
			</g>
			<g id="shape16-32" v:mID="16" v:groupContext="shape" transform="translate(-561.63,1446.63) rotate(-136.848)">
				<title>Hoja.16</title>
				<path d="M0 841.89 L6.91 841.89" class="st4"/>
			</g>
		</g>
		<g id="shape18-35" v:mID="18" v:groupContext="shape" transform="translate(77.9528,-651.969)">
			<title>Hoja.18</title>
			<desc>Tutorials</desc>
			<v:textBlock v:margins="rect(4,4,4,4)" v:tabSpace="42.5197"/>
			<v:textRect cx="46.063" cy="831.26" width="92.13" height="21.2598"/>
			<rect x="0" y="820.63" width="92.126" height="21.2598" class="st2"/>
			<text x="24.75" y="834.86" class="st3" v:langID="3082"><v:paragraph v:horizAlign="1"/><v:tabList/>Tutorials</text>		</g>
		<g id="group19-38" transform="translate(99.2126,-630.709)" v:mID="19" v:groupContext="group">
			<title>Hoja.19</title>
			<g id="shape20-39" v:mID="20" v:groupContext="shape" transform="translate(841.89,827.717) rotate(90)">
				<title>Hoja.20</title>
				<path d="M0 841.89 L14.17 841.89" class="st6"/>
			</g>
			<g id="shape21-42" v:mID="21" v:groupContext="shape">
				<title>Hoja.21</title>
				<path d="M0 841.89 L14.17 841.89 L14.17 832.44 L9.13 832.44 L9.13 827.72 L0 827.72" class="st6"/>
			</g>
			<g id="shape22-45" v:mID="22" v:groupContext="shape" transform="translate(-561.63,1446.63) rotate(-136.848)">
				<title>Hoja.22</title>
				<path d="M0 841.89 L6.91 841.89" class="st6"/>
			</g>
		</g>
		<g id="shape23-48" v:mID="23" v:groupContext="shape" transform="translate(115.512,-630.709)">
			<title>Hoja.23</title>
			<desc>userManual.pdf</desc>
			<v:textBlock v:margins="rect(4,4,4,4)" v:tabSpace="42.5197"/>
			<v:textRect cx="53.1496" cy="834.803" width="106.3" height="14.1732"/>
			<rect x="0" y="827.717" width="106.299" height="14.1732" class="st5"/>
			<text x="4" y="838.4" class="st3" v:langID="3082"><v:paragraph/><v:tabList/>userManual.pdf</text>		</g>
		<g id="shape24-51" v:mID="24" v:groupContext="shape" transform="translate(99.2126,-581.102)">
			<title>Hoja.24</title>
			<desc>US001-&#60;Name&#62;</desc>
			<v:textBlock v:margins="rect(4,4,4,4)" v:tabSpace="42.5197"/>
			<v:textRect cx="46.063" cy="831.26" width="92.13" height="21.2598"/>
			<path d="M0 841.89 L92.13 841.89 L92.13 820.63 L0 820.63 L0 841.89 Z" class="st7"/>
			<text x="7.99" y="834.86" class="st3" v:langID="3082"><v:paragraph v:horizAlign="1"/><v:tabList/>US001-&#60;Name&#62;</text>		</g>
		<g id="shape25-54" v:mID="25" v:groupContext="shape" transform="translate(99.2126,-552.756)">
			<title>Hoja.25</title>
			<desc>US002-&#60;Name&#62;</desc>
			<v:textBlock v:margins="rect(4,4,4,4)" v:tabSpace="42.5197"/>
			<v:textRect cx="46.063" cy="831.26" width="92.13" height="21.2598"/>
			<path d="M0 841.89 L92.13 841.89 L92.13 820.63 L0 820.63 L0 841.89 Z" class="st7"/>
			<text x="7.99" y="834.86" class="st3" v:langID="3082"><v:paragraph v:horizAlign="1"/><v:tabList/>US002-&#60;Name&#62;</text>		</g>
		<g id="shape26-57" v:mID="26" v:groupContext="shape" transform="translate(99.2126,-524.409)">
			<title>Hoja.26</title>
			<desc>….</desc>
			<v:textBlock v:margins="rect(4,4,4,4)" v:tabSpace="42.5197"/>
			<v:textRect cx="46.063" cy="831.26" width="92.13" height="21.2598"/>
			<path d="M0 841.89 L92.13 841.89 L92.13 820.63 L0 820.63 L0 841.89 Z" class="st7"/>
			<text x="40.41" y="834.86" class="st3" v:langID="3082"><v:paragraph v:horizAlign="1"/><v:tabList/>….</text>		</g>
		<g id="shape27-60" v:mID="27" v:groupContext="shape" transform="translate(77.9528,-496.063)">
			<title>Hoja.27</title>
			<desc>Test Plans</desc>
			<v:textBlock v:margins="rect(4,4,4,4)" v:tabSpace="42.5197"/>
			<v:textRect cx="46.063" cy="831.26" width="92.13" height="21.2598"/>
			<rect x="0" y="820.63" width="92.126" height="21.2598" class="st2"/>
			<text x="21.59" y="834.86" class="st3" v:langID="3082"><v:paragraph v:horizAlign="1"/><v:tabList/>Test Plans</text>		</g>
		<g id="group43-63" transform="translate(99.2126,-474.803)" v:mID="43" v:groupContext="group">
			<title>Hoja.43</title>
			<g id="shape44-64" v:mID="44" v:groupContext="shape" transform="translate(841.89,827.717) rotate(90)">
				<title>Hoja.44</title>
				<path d="M0 841.89 L14.17 841.89" class="st4"/>
			</g>
			<g id="shape45-67" v:mID="45" v:groupContext="shape">
				<title>Hoja.45</title>
				<path d="M0 841.89 L14.17 841.89 L14.17 832.44 L9.13 832.44 L9.13 827.72 L0 827.72" class="st4"/>
			</g>
			<g id="shape46-70" v:mID="46" v:groupContext="shape" transform="translate(-561.63,1446.63) rotate(-136.848)">
				<title>Hoja.46</title>
				<path d="M0 841.89 L6.91 841.89" class="st4"/>
			</g>
		</g>
		<g id="shape47-73" v:mID="47" v:groupContext="shape" transform="translate(115.512,-474.803)">
			<title>Hoja.47</title>
			<desc>US001-&#60;Name&#62;-TestPlan.pdf</desc>
			<v:textBlock v:margins="rect(4,4,4,4)" v:tabSpace="42.5197"/>
			<v:textRect cx="74.7638" cy="834.803" width="149.53" height="14.1732"/>
			<rect x="0" y="827.717" width="149.528" height="14.1732" class="st5"/>
			<text x="4" y="838.4" class="st3" v:langID="3082"><v:paragraph/><v:tabList/>US001-&#60;Name&#62;-TestPlan.pdf</text>		</g>
		<g id="group28-76" transform="translate(99.2126,-453.543)" v:mID="28" v:groupContext="group">
			<title>Hoja.28</title>
			<g id="shape29-77" v:mID="29" v:groupContext="shape" transform="translate(841.89,827.717) rotate(90)">
				<title>Hoja.29</title>
				<path d="M0 841.89 L14.17 841.89" class="st4"/>
			</g>
			<g id="shape30-80" v:mID="30" v:groupContext="shape">
				<title>Hoja.30</title>
				<path d="M0 841.89 L14.17 841.89 L14.17 832.44 L9.13 832.44 L9.13 827.72 L0 827.72" class="st4"/>
			</g>
			<g id="shape48-83" v:mID="48" v:groupContext="shape" transform="translate(-561.63,1446.63) rotate(-136.848)">
				<title>Hoja.48</title>
				<path d="M0 841.89 L6.91 841.89" class="st4"/>
			</g>
		</g>
		<g id="shape56-86" v:mID="56" v:groupContext="shape" transform="translate(42.5197,-762.52)">
			<title>Hoja.56</title>
			<path d="M14.17 841.89 L0 841.89 L0 817.8" class="st4"/>
		</g>
		<g id="shape57-89" v:mID="57" v:groupContext="shape" transform="translate(63.7795,-435.118)">
			<title>Hoja.57</title>
			<path d="M0 525.83 L0 841.89 L14.17 841.89" class="st4"/>
		</g>
		<g id="shape59-92" v:mID="59" v:groupContext="shape" transform="translate(926.929,119.055) rotate(90)">
			<title>Hoja.59</title>
			<path d="M0 841.89 L35.43 841.89" class="st4"/>
		</g>
		<g id="shape60-95" v:mID="60" v:groupContext="shape" transform="translate(926.929,189.921) rotate(90)">
			<title>Hoja.60</title>
			<path d="M0 841.89 L116.22 841.89" class="st6"/>
		</g>
		<g id="shape61-98" v:mID="61" v:groupContext="shape" transform="translate(85.0394,-637.795)">
			<title>Hoja.61</title>
			<path d="M0 841.89 L14.17 841.89" class="st6"/>
		</g>
		<g id="shape62-101" v:mID="62" v:groupContext="shape" transform="translate(85.0394,-535.748)">
			<title>Hoja.62</title>
			<path d="M0 841.89 L14.17 841.89" class="st6"/>
		</g>
		<g id="shape63-104" v:mID="63" v:groupContext="shape" transform="translate(85.0394,-687.402)">
			<title>Hoja.63</title>
			<path d="M0 841.89 L14.17 841.89" class="st4"/>
		</g>
		<g id="shape64-107" v:mID="64" v:groupContext="shape" transform="translate(85.0394,-708.661)">
			<title>Hoja.64</title>
			<path d="M0 841.89 L14.17 841.89" class="st4"/>
		</g>
		<g id="shape66-110" v:mID="66" v:groupContext="shape" transform="translate(85.0394,-460.63)">
			<title>Hoja.66</title>
			<path d="M0 806.46 L0 841.89 L14.17 841.89" class="st4"/>
		</g>
		<g id="shape68-113" v:mID="68" v:groupContext="shape" transform="translate(85.0394,-481.89)">
			<title>Hoja.68</title>
			<path d="M0 841.89 L14.17 841.89" class="st4"/>
		</g>
		<g id="shape71-116" v:mID="71" v:groupContext="shape" transform="translate(42.5197,-779.528)">
			<title>Hoja.71</title>
			<path d="M0 841.89 L191.34 841.89" class="st4"/>
		</g>
		<g id="shape72-119" v:mID="72" v:groupContext="shape" transform="translate(77.9528,949.606) rotate(180)">
			<title>Hoja.72</title>
			<path d="M0 841.89 L14.17 841.89" class="st4"/>
		</g>
		<g id="shape75-122" v:mID="75" v:groupContext="shape" transform="translate(99.2126,1092.76) rotate(180)">
			<title>Hoja.75</title>
			<path d="M0 841.89 L14.17 841.89" class="st6"/>
		</g>
		<g id="shape76-125" v:mID="76" v:groupContext="shape" transform="translate(99.2126,1121.1) rotate(180)">
			<title>Hoja.76</title>
			<path d="M0 841.89 L14.17 841.89" class="st6"/>
		</g>
		<g id="shape98-128" v:mID="98" v:groupContext="shape" transform="translate(233.858,-772.441)">
			<title>Hoja.98</title>
			<path d="M0 834.8 L35.43 834.8 L35.43 841.89" class="st4"/>
		</g>
		<g id="shape115-131" v:mID="115" v:groupContext="shape" transform="translate(77.2441,-425.197)">
			<title>Hoja.115</title>
			<desc>Quality Report</desc>
			<v:textBlock v:margins="rect(4,4,4,4)" v:tabSpace="42.5197"/>
			<v:textRect cx="46.063" cy="831.26" width="92.13" height="21.2598"/>
			<rect x="0" y="820.63" width="92.126" height="21.2598" class="st2"/>
			<text x="10.5" y="834.86" class="st3" v:langID="3082"><v:paragraph v:horizAlign="1"/><v:tabList/>Quality Report</text>		</g>
		<g id="group116-134" transform="translate(98.5039,-403.937)" v:mID="116" v:groupContext="group">
			<title>Hoja.116</title>
			<g id="shape117-135" v:mID="117" v:groupContext="shape" transform="translate(841.89,827.717) rotate(90)">
				<title>Hoja.117</title>
				<path d="M0 841.89 L14.17 841.89" class="st4"/>
			</g>
			<g id="shape118-138" v:mID="118" v:groupContext="shape">
				<title>Hoja.118</title>
				<path d="M0 841.89 L14.17 841.89 L14.17 832.44 L9.13 832.44 L9.13 827.72 L0 827.72" class="st4"/>
			</g>
			<g id="shape119-141" v:mID="119" v:groupContext="shape" transform="translate(-561.63,1446.63) rotate(-136.848)">
				<title>Hoja.119</title>
				<path d="M0 841.89 L6.91 841.89" class="st4"/>
			</g>
		</g>
		<g id="shape120-144" v:mID="120" v:groupContext="shape" transform="translate(114.803,-403.937)">
			<title>Hoja.120</title>
			<desc>SP01-QAReport.pdf</desc>
			<v:textBlock v:margins="rect(4,4,4,4)" v:tabSpace="42.5197"/>
			<v:textRect cx="82.5591" cy="834.803" width="165.12" height="14.1732"/>
			<rect x="0" y="827.717" width="165.118" height="14.1732" class="st5"/>
			<text x="4" y="838.4" class="st3" v:langID="3082"><v:paragraph/><v:tabList/>SP01-QAReport.pdf</text>		</g>
		<g id="group121-147" transform="translate(98.5039,-382.677)" v:mID="121" v:groupContext="group">
			<title>Hoja.121</title>
			<g id="shape122-148" v:mID="122" v:groupContext="shape" transform="translate(841.89,827.717) rotate(90)">
				<title>Hoja.122</title>
				<path d="M0 841.89 L14.17 841.89" class="st4"/>
			</g>
			<g id="shape123-151" v:mID="123" v:groupContext="shape">
				<title>Hoja.123</title>
				<path d="M0 841.89 L14.17 841.89 L14.17 832.44 L9.13 832.44 L9.13 827.72 L0 827.72" class="st4"/>
			</g>
			<g id="shape124-154" v:mID="124" v:groupContext="shape" transform="translate(-561.63,1446.63) rotate(-136.848)">
				<title>Hoja.124</title>
				<path d="M0 841.89 L6.91 841.89" class="st4"/>
			</g>
		</g>
		<g id="shape125-157" v:mID="125" v:groupContext="shape" transform="translate(114.803,-382.677)">
			<title>Hoja.125</title>
			<desc>SP02-QAReport.pdf</desc>
			<v:textBlock v:margins="rect(4,4,4,4)" v:tabSpace="42.5197"/>
			<v:textRect cx="72.6378" cy="834.803" width="145.28" height="14.1732"/>
			<rect x="0" y="827.717" width="145.276" height="14.1732" class="st5"/>
			<text x="4" y="838.4" class="st3" v:langID="3082"><v:paragraph/><v:tabList/>SP02-QAReport.pdf</text>		</g>
		<g id="group126-160" transform="translate(98.5039,-361.417)" v:mID="126" v:groupContext="group">
			<title>Hoja.126</title>
			<g id="shape127-161" v:mID="127" v:groupContext="shape" transform="translate(841.89,827.717) rotate(90)">
				<title>Hoja.127</title>
				<path d="M0 841.89 L14.17 841.89" class="st4"/>
			</g>
			<g id="shape128-164" v:mID="128" v:groupContext="shape">
				<title>Hoja.128</title>
				<path d="M0 841.89 L14.17 841.89 L14.17 832.44 L9.13 832.44 L9.13 827.72 L0 827.72" class="st4"/>
			</g>
			<g id="shape129-167" v:mID="129" v:groupContext="shape" transform="translate(-561.63,1446.63) rotate(-136.848)">
				<title>Hoja.129</title>
				<path d="M0 841.89 L6.91 841.89" class="st4"/>
			</g>
		</g>
		<g id="shape130-170" v:mID="130" v:groupContext="shape" transform="translate(114.803,-361.417)">
			<title>Hoja.130</title>
			<desc>...</desc>
			<v:textBlock v:margins="rect(4,4,4,4)" v:tabSpace="42.5197"/>
			<v:textRect cx="69.8031" cy="834.803" width="139.61" height="14.1732"/>
			<rect x="0" y="827.717" width="139.606" height="14.1732" class="st5"/>
			<text x="4" y="838.4" class="st3" v:langID="3082"><v:paragraph/><v:tabList/>...</text>		</g>
		<g id="shape131-173" v:mID="131" v:groupContext="shape" transform="translate(84.3307,-368.504)">
			<title>Hoja.131</title>
			<path d="M0 785.2 L0 841.89 L14.17 841.89" class="st4"/>
		</g>
		<g id="shape132-176" v:mID="132" v:groupContext="shape" transform="translate(84.3307,-389.764)">
			<title>Hoja.132</title>
			<path d="M0 841.89 L14.17 841.89" class="st4"/>
		</g>
		<g id="shape133-179" v:mID="133" v:groupContext="shape" transform="translate(84.3307,-411.024)">
			<title>Hoja.133</title>
			<path d="M0 841.89 L14.17 841.89" class="st4"/>
		</g>
		<g id="shape135-182" v:mID="135" v:groupContext="shape" transform="translate(77.9528,1020.47) rotate(180)">
			<title>Hoja.135</title>
			<path d="M0 841.89 L14.17 841.89" class="st4"/>
		</g>
		<g id="shape136-185" v:mID="136" v:groupContext="shape" transform="translate(63.7795,-507.402)">
			<title>Hoja.136</title>
			<path d="M0 841.89 L14.17 841.89" class="st4"/>
		</g>
		<g id="shape147-188" v:mID="147" v:groupContext="shape" transform="translate(115.512,-680.315)">
			<title>Hoja.147</title>
			<desc>AppArchitecture.png</desc>
			<v:textBlock v:margins="rect(4,4,4,4)" v:tabSpace="42.5197"/>
			<v:textRect cx="55.6299" cy="834.803" width="111.26" height="14.1732"/>
			<rect x="0" y="827.717" width="111.26" height="14.1732" class="st5"/>
			<text x="4" y="838.4" class="st3" v:langID="3082"><v:paragraph/><v:tabList/>AppArchitecture.png</text>		</g>
		<g id="shape152-191" v:mID="152" v:groupContext="shape" transform="translate(115.512,-453.543)">
			<title>Hoja.152</title>
			<desc>US002-&#60;Name&#62;-TestPlan.pdf</desc>
			<v:textBlock v:margins="rect(4,4,4,4)" v:tabSpace="42.5197"/>
			<v:textRect cx="75.4724" cy="834.803" width="150.95" height="14.1732"/>
			<rect x="0" y="827.717" width="150.945" height="14.1732" class="st5"/>
			<text x="4" y="838.4" class="st3" v:langID="3082"><v:paragraph/><v:tabList/>US002-&#60;Name&#62;-TestPlan.pdf</text>		</g>
		<g id="group188-194" transform="translate(269.291,-685.984)" v:mID="188" v:groupContext="group">
			<title>Hoja.188</title>
			<g id="group165-195" transform="translate(-7.99361E-14,-21.2598)" v:mID="165" v:groupContext="group">
				<title>Hoja.165</title>
				<g id="shape166-196" v:mID="166" v:groupContext="shape" transform="translate(14.1732,-42.5197)">
					<title>Hoja.166</title>
					<desc>Releases</desc>
					<v:textBlock v:margins="rect(4,4,4,4)" v:tabSpace="42.5197"/>
					<v:textRect cx="46.063" cy="831.26" width="92.13" height="21.2598"/>
					<rect x="0" y="820.63" width="92.126" height="21.2598" class="st2"/>
					<text x="24.9" y="834.86" class="st3" v:langID="3082"><v:paragraph v:horizAlign="1"/><v:tabList/>Releases</text>				</g>
				<g id="group167-199" transform="translate(35.4331,-21.2598)" v:mID="167" v:groupContext="group">
					<title>Hoja.167</title>
					<g id="shape168-200" v:mID="168" v:groupContext="shape" transform="translate(841.89,827.717) rotate(90)">
						<title>Hoja.168</title>
						<path d="M0 841.89 L14.17 841.89" class="st4"/>
					</g>
					<g id="shape169-203" v:mID="169" v:groupContext="shape">
						<title>Hoja.169</title>
						<path d="M0 841.89 L14.17 841.89 L14.17 832.44 L9.13 832.44 L9.13 827.72 L0 827.72" class="st4"/>
					</g>
					<g id="shape170-206" v:mID="170" v:groupContext="shape" transform="translate(-561.63,1446.63) rotate(-136.848)">
						<title>Hoja.170</title>
						<path d="M0 841.89 L6.91 841.89" class="st4"/>
					</g>
				</g>
				<g id="shape171-209" v:mID="171" v:groupContext="shape" transform="translate(52.7953,-21.2598)">
					<title>Hoja.171</title>
					<desc>BusFinder-00.00.01-20211005.apk</desc>
					<v:textBlock v:margins="rect(4,4,4,4)" v:tabSpace="42.5197"/>
					<v:textRect cx="90.5315" cy="834.803" width="181.07" height="14.1732"/>
					<rect x="0" y="827.717" width="181.063" height="14.1732" class="st5"/>
					<text x="4" y="838.4" class="st3" v:langID="3082"><v:paragraph/><v:tabList/>BusFinder-00.00.01-20211005.apk</text>				</g>
				<g id="group172-212" transform="translate(35.4331,0)" v:mID="172" v:groupContext="group">
					<title>Hoja.172</title>
					<g id="shape173-213" v:mID="173" v:groupContext="shape" transform="translate(841.89,827.717) rotate(90)">
						<title>Hoja.173</title>
						<path d="M0 841.89 L14.17 841.89" class="st4"/>
					</g>
					<g id="shape174-216" v:mID="174" v:groupContext="shape">
						<title>Hoja.174</title>
						<path d="M0 841.89 L14.17 841.89 L14.17 832.44 L9.13 832.44 L9.13 827.72 L0 827.72" class="st4"/>
					</g>
					<g id="shape175-219" v:mID="175" v:groupContext="shape" transform="translate(-561.63,1446.63) rotate(-136.848)">
						<title>Hoja.175</title>
						<path d="M0 841.89 L6.91 841.89" class="st4"/>
					</g>
				</g>
				<g id="shape176-222" v:mID="176" v:groupContext="shape" transform="translate(52.7953,0)">
					<title>Hoja.176</title>
					<desc>BusFinder-00.00.02-20211020.apk</desc>
					<v:textBlock v:margins="rect(4,4,4,4)" v:tabSpace="42.5197"/>
					<v:textRect cx="88.4055" cy="834.803" width="176.82" height="14.1732"/>
					<rect x="0" y="827.717" width="176.811" height="14.1732" class="st5"/>
					<text x="4" y="838.4" class="st3" v:langID="3082"><v:paragraph/><v:tabList/>BusFinder-00.00.02-20211020.apk</text>				</g>
				<g id="shape177-225" v:mID="177" v:groupContext="shape" transform="translate(-7.99361E-15,-52.4409)">
					<title>Hoja.177</title>
					<path d="M0 841.89 L14.17 841.89" class="st4"/>
				</g>
				<g id="shape178-228" v:mID="178" v:groupContext="shape" transform="translate(21.2598,-7.08661)">
					<title>Hoja.178</title>
					<path d="M0 806.46 L0 841.89 L14.17 841.89" class="st4"/>
				</g>
				<g id="shape179-231" v:mID="179" v:groupContext="shape" transform="translate(21.2598,-28.3465)">
					<title>Hoja.179</title>
					<path d="M0 841.89 L14.17 841.89" class="st4"/>
				</g>
			</g>
			<g id="group180-234" transform="translate(35.4331,0)" v:mID="180" v:groupContext="group">
				<title>Hoja.180</title>
				<g id="shape181-235" v:mID="181" v:groupContext="shape" transform="translate(841.89,827.717) rotate(90)">
					<title>Hoja.181</title>
					<path d="M0 841.89 L14.17 841.89" class="st4"/>
				</g>
				<g id="shape182-238" v:mID="182" v:groupContext="shape">
					<title>Hoja.182</title>
					<path d="M0 841.89 L14.17 841.89 L14.17 832.44 L9.13 832.44 L9.13 827.72 L0 827.72" class="st4"/>
				</g>
				<g id="shape183-241" v:mID="183" v:groupContext="shape" transform="translate(-561.63,1446.63) rotate(-136.848)">
					<title>Hoja.183</title>
					<path d="M0 841.89 L6.91 841.89" class="st4"/>
				</g>
			</g>
			<g id="shape184-244" v:mID="184" v:groupContext="shape" transform="translate(51.7323,-1.13687E-13)">
				<title>Hoja.184</title>
				<desc>...</desc>
				<v:textBlock v:margins="rect(4,4,4,4)" v:tabSpace="42.5197"/>
				<v:textRect cx="69.8031" cy="834.803" width="139.61" height="14.1732"/>
				<rect x="0" y="827.717" width="139.606" height="14.1732" class="st5"/>
				<text x="4" y="838.4" class="st3" v:langID="3082"><v:paragraph/><v:tabList/>...</text>			</g>
			<g id="shape185-247" v:mID="185" v:groupContext="shape" transform="translate(863.15,813.543) rotate(90)">
				<title>Hoja.185</title>
				<path d="M0 841.89 L21.26 841.89" class="st4"/>
			</g>
			<g id="shape186-250" v:mID="186" v:groupContext="shape" transform="translate(21.2598,-7.08662)">
				<title>Hoja.186</title>
				<path d="M0 841.89 L14.17 841.89" class="st4"/>
			</g>
		</g>
		<g id="shape189-253" v:mID="189" v:groupContext="shape" transform="translate(-572.598,82.2047) rotate(-90)">
			<title>Hoja.189</title>
			<path d="M0 841.89 L12.76 841.89" class="st4"/>
		</g>
		<g id="shape190-256" v:mID="190" v:groupContext="shape" transform="translate(269.291,-668.976)">
			<title>Hoja.190</title>
			<path d="M0 751.18 L0 841.89 L14.17 841.89" class="st4"/>
		</g>
		<g id="shape191-259" v:mID="191" v:groupContext="shape" transform="translate(283.465,-659.055)">
			<title>Hoja.191</title>
			<desc>AndroidProject</desc>
			<v:textBlock v:margins="rect(4,4,4,4)" v:tabSpace="42.5197"/>
			<v:textRect cx="46.063" cy="831.26" width="92.13" height="21.2598"/>
			<rect x="0" y="820.63" width="92.126" height="21.2598" class="st2"/>
			<text x="9.18" y="834.86" class="st3" v:langID="3082"><v:paragraph v:horizAlign="1"/><v:tabList/>AndroidProject</text>		</g>
		<g id="shape192-262" v:mID="192" v:groupContext="shape" transform="translate(291.969,-633.543)">
			<title>Hoja.192</title>
			<desc>App/src</desc>
			<v:textBlock v:margins="rect(4,4,4,4)" v:tabSpace="42.5197"/>
			<v:textRect cx="46.063" cy="831.26" width="92.13" height="21.2598"/>
			<rect x="0" y="820.63" width="92.126" height="21.2598" class="st2"/>
			<text x="26.99" y="834.86" class="st3" v:langID="3082"><v:paragraph v:horizAlign="1"/><v:tabList/>App/src</text>		</g>
		<g id="shape193-265" v:mID="193" v:groupContext="shape" transform="translate(286.299,-643.465)">
			<title>Hoja.193</title>
			<path d="M0 826.3 L0 841.89 L5.67 841.89" class="st4"/>
		</g>
		<g id="shape194-268" v:mID="194" v:groupContext="shape" transform="translate(300.472,-608.031)">
			<title>Hoja.194</title>
			<desc>main</desc>
			<v:textBlock v:margins="rect(4,4,4,4)" v:tabSpace="42.5197"/>
			<v:textRect cx="56.6929" cy="831.26" width="113.39" height="21.2598"/>
			<rect x="0" y="820.63" width="113.386" height="21.2598" class="st2"/>
			<text x="44.5" y="834.86" class="st3" v:langID="3082"><v:paragraph v:horizAlign="1"/><v:tabList/>main</text>		</g>
		<g id="shape195-271" v:mID="195" v:groupContext="shape" transform="translate(300.472,-506.693)">
			<title>Hoja.195</title>
			<desc>AndroidTest</desc>
			<v:textBlock v:margins="rect(4,4,4,4)" v:tabSpace="42.5197"/>
			<v:textRect cx="46.063" cy="831.26" width="92.13" height="21.2598"/>
			<rect x="0" y="820.63" width="92.126" height="21.2598" class="st2"/>
			<text x="16.24" y="834.86" class="st3" v:langID="3082"><v:paragraph v:horizAlign="1"/><v:tabList/>AndroidTest</text>		</g>
		<g id="shape196-274" v:mID="196" v:groupContext="shape" transform="translate(300.472,-531.496)">
			<title>Hoja.196</title>
			<desc>test</desc>
			<v:textBlock v:margins="rect(4,4,4,4)" v:tabSpace="42.5197"/>
			<v:textRect cx="46.063" cy="831.26" width="92.13" height="21.2598"/>
			<rect x="0" y="820.63" width="92.126" height="21.2598" class="st2"/>
			<text x="36.71" y="834.86" class="st3" v:langID="3082"><v:paragraph v:horizAlign="1"/><v:tabList/>test</text>		</g>
		<g id="group199-277" transform="translate(308.976,-589.606)" v:mID="199" v:groupContext="group">
			<title>Hoja.199</title>
			<g id="shape197-278" v:mID="197" v:groupContext="shape">
				<title>Hoja.197</title>
				<rect x="0" y="830.551" width="17.0079" height="11.3386" class="st2"/>
			</g>
			<g id="shape198-280" v:mID="198" v:groupContext="shape" transform="translate(3.2474E-14,-11.3386)">
				<title>Hoja.198</title>
				<rect x="0" y="839.055" width="8.50394" height="2.83465" class="st2"/>
			</g>
		</g>
		<g id="group200-282" transform="translate(308.976,-572.598)" v:mID="200" v:groupContext="group">
			<title>Hoja.200</title>
			<g id="shape201-283" v:mID="201" v:groupContext="shape">
				<title>Hoja.201</title>
				<rect x="0" y="830.551" width="17.0079" height="11.3386" class="st2"/>
			</g>
			<g id="shape202-285" v:mID="202" v:groupContext="shape" transform="translate(3.2474E-14,-11.3386)">
				<title>Hoja.202</title>
				<rect x="0" y="839.055" width="8.50394" height="2.83465" class="st2"/>
			</g>
		</g>
		<g id="shape203-287" v:mID="203" v:groupContext="shape" transform="translate(328.819,-589.606)">
			<title>Hoja.203</title>
			<desc>Model</desc>
			<v:textBlock v:margins="rect(4,4,4,4)" v:tabSpace="42.5197"/>
			<v:textRect cx="31.1811" cy="834.803" width="62.37" height="14.1732"/>
			<rect x="0" y="827.717" width="62.3622" height="14.1732" class="st5"/>
			<text x="4" y="838.4" class="st3" v:langID="3082"><v:paragraph/><v:tabList/>Model</text>		</g>
		<g id="shape204-290" v:mID="204" v:groupContext="shape" transform="translate(328.819,-572.598)">
			<title>Hoja.204</title>
			<desc>View</desc>
			<v:textBlock v:margins="rect(4,4,4,4)" v:tabSpace="42.5197"/>
			<v:textRect cx="31.1811" cy="834.803" width="62.37" height="14.1732"/>
			<rect x="0" y="827.717" width="62.3622" height="14.1732" class="st5"/>
			<text x="4" y="838.4" class="st3" v:langID="3082"><v:paragraph/><v:tabList/>View</text>		</g>
		<g id="group205-293" transform="translate(308.976,-555.591)" v:mID="205" v:groupContext="group">
			<title>Hoja.205</title>
			<g id="shape206-294" v:mID="206" v:groupContext="shape">
				<title>Hoja.206</title>
				<rect x="0" y="830.551" width="17.0079" height="11.3386" class="st2"/>
			</g>
			<g id="shape207-296" v:mID="207" v:groupContext="shape" transform="translate(3.2474E-14,-11.3386)">
				<title>Hoja.207</title>
				<rect x="0" y="839.055" width="8.50394" height="2.83465" class="st2"/>
			</g>
		</g>
		<g id="shape208-298" v:mID="208" v:groupContext="shape" transform="translate(328.819,-555.591)">
			<title>Hoja.208</title>
			<desc>Presenter</desc>
			<v:textBlock v:margins="rect(4,4,4,4)" v:tabSpace="42.5197"/>
			<v:textRect cx="31.1811" cy="834.803" width="62.37" height="14.1732"/>
			<rect x="0" y="827.717" width="62.3622" height="14.1732" class="st5"/>
			<text x="4" y="838.4" class="st3" v:langID="3082"><v:paragraph/><v:tabList/>Presenter</text>		</g>
		<g id="shape209-301" v:mID="209" v:groupContext="shape" transform="translate(294.803,-619.37)">
			<title>Hoja.209</title>
			<path d="M0 827.72 L0 841.89 L5.67 841.89" class="st4"/>
		</g>
		<g id="shape210-304" v:mID="210" v:groupContext="shape" transform="translate(294.803,-541.417)">
			<title>Hoja.210</title>
			<path d="M0 763.94 L0 841.89 L5.67 841.89" class="st4"/>
		</g>
		<g id="shape211-307" v:mID="211" v:groupContext="shape" transform="translate(294.803,-517.323)">
			<title>Hoja.211</title>
			<path d="M0 817.8 L0 841.89 L5.67 841.89" class="st4"/>
		</g>
		<g id="shape212-310" v:mID="212" v:groupContext="shape" transform="translate(303.307,-561.26)">
			<title>Hoja.212</title>
			<path d="M5.67 841.89 L0 841.89 L0 795.12" class="st4"/>
		</g>
		<g id="shape213-313" v:mID="213" v:groupContext="shape" transform="translate(303.307,-595.276)">
			<title>Hoja.213</title>
			<path d="M0 841.89 L5.67 841.89" class="st4"/>
		</g>
		<g id="shape214-316" v:mID="214" v:groupContext="shape" transform="translate(303.307,-578.268)">
			<title>Hoja.214</title>
			<path d="M0 841.89 L5.67 841.89" class="st4"/>
		</g>
		<g id="group215-319" transform="translate(98.8583,-609.449)" v:mID="215" v:groupContext="group">
			<title>Hoja.215</title>
			<g id="shape216-320" v:mID="216" v:groupContext="shape" transform="translate(841.89,827.717) rotate(90)">
				<title>Hoja.216</title>
				<path d="M0 841.89 L14.17 841.89" class="st6"/>
			</g>
			<g id="shape217-323" v:mID="217" v:groupContext="shape">
				<title>Hoja.217</title>
				<path d="M0 841.89 L14.17 841.89 L14.17 832.44 L9.13 832.44 L9.13 827.72 L0 827.72" class="st6"/>
			</g>
			<g id="shape218-326" v:mID="218" v:groupContext="shape" transform="translate(-561.63,1446.63) rotate(-136.848)">
				<title>Hoja.218</title>
				<path d="M0 841.89 L6.91 841.89" class="st6"/>
			</g>
		</g>
		<g id="shape219-329" v:mID="219" v:groupContext="shape" transform="translate(115.157,-609.449)">
			<title>Hoja.219</title>
			<desc>videotutoriales.txt</desc>
			<v:textBlock v:margins="rect(4,4,4,4)" v:tabSpace="42.5197"/>
			<v:textRect cx="53.1496" cy="834.803" width="106.3" height="14.1732"/>
			<rect x="0" y="827.717" width="106.299" height="14.1732" class="st5"/>
			<text x="4" y="838.4" class="st3" v:langID="3082"><v:paragraph/><v:tabList/>videotutoriales.txt</text>		</g>
		<g id="shape220-332" v:mID="220" v:groupContext="shape" transform="translate(84.685,-616.535)">
			<title>Hoja.220</title>
			<path d="M0 841.89 L14.17 841.89" class="st6"/>
		</g>
	</g>
</svg>
